<svg xmlns="http://www.w3.org/2000/svg" viewBox="0 0 190 183.61"><defs><style>.cls-1{fill:#007a4e;}.cls-2{fill:#fff;}.cls-3{fill:#e40520;}.cls-4{fill:#ef7d00;}</style></defs><g id="Capa_2" data-name="Capa 2"><g id="Layer_1" data-name="Layer 1"><rect class="cls-1" width="190" height="183.61"/><path class="cls-2" d="M159,166.27a8.46,8.46,0,0,1-6.2,6.14h-33c-.4,2.15.16,4.44-.22,6.59H72.43c-.16,0-.68.06-.68-.33-.17-2,.12-4.28-.23-6.26l-35.66-.06c-1.35-.17-2.38-1.15-3.52-1.87a9.27,9.27,0,0,1-2.45-5L14.76,18a7.74,7.74,0,0,1,5.3-6.55L167.25,11a8.18,8.18,0,0,1,6.47,5.08,9.36,9.36,0,0,1,.3,3.81Z"/><path class="cls-3" d="M151.05,64.35c-12.86,5.86-25.72,18-28.52,32.25l-.45.22H82.78a46.71,46.71,0,0,1,1.6-5.47,90.39,90.39,0,0,1,23.89-37.76,120.54,120.54,0,0,1,33.27-23.31c2.17-.63,4.1-1.88,6.42-2.28,1-.22,2-.57,3.13-.74l0,37.09"/><path class="cls-4" d="M138.58,27.94a100.65,100.65,0,0,0-22.12,13.88,136.05,136.05,0,0,0-20.6,20H41.28V27.94Z"/><path class="cls-1" d="M112.7,99.66c-1.31,9.39-2.66,18.71-4.31,27.93H95.75l-.16-.12c-1.36-9.26-2.8-18.6-4-27.81h8.7l.13.17c1.07,6.88,1.93,13.87,3.23,20.65,1.26-6.82,2.06-13.93,3.25-20.82a51.89,51.89,0,0,1,5.85,0"/><polyline class="cls-1" points="54.57 105.42 47.88 105.42 47.88 110.31 54.43 110.31 54.43 116.23 47.88 116.23 47.88 121.76 54.42 121.76 54.42 127.58 39.11 127.58 39.11 99.53 54.57 99.53 54.57 105.42"/><polyline class="cls-1" points="89.81 105.42 83.13 105.42 83.13 110.31 89.67 110.31 89.67 116.23 83.13 116.23 83.13 121.76 89.66 121.76 89.66 127.58 74.35 127.58 74.35 99.53 89.81 99.53 89.81 105.42"/><polyline class="cls-1" points="130.18 105.42 123.51 105.42 123.51 110.31 130.06 110.31 130.06 116.23 123.51 116.23 123.51 121.76 130.04 121.76 130.04 127.58 114.72 127.58 114.72 99.53 130.18 99.53 130.18 105.42"/><polyline class="cls-1" points="57.59 99.53 66.37 99.53 66.37 121.76 72.61 121.76 72.61 127.58 57.59 127.58 57.59 99.53"/><path class="cls-1" d="M141.52,102.76a7.89,7.89,0,0,1,7.07-3.82c4.95,0,5.88,3.58,5.88,10.68V127.7H146V110.06c0-2.45-.16-4.19-2.07-4.19-2.2,0-2.33,1.94-2.33,5.44V127.7h-8.48V99.61h8.39v3.15"/><path class="cls-1" d="M128,136.69c.92,0,1.74-.07,1.74-1.18,0-.88-.81-1.06-1.57-1.06h-1.48v2.24H128m-1.31,4h-1.09v-7.2h2.75c1.69,0,2.53.64,2.53,2.06a1.86,1.86,0,0,1-1.86,2l2.05,3.17h-1.22L128,137.62h-1.25Zm1.32,1.61a5.21,5.21,0,1,0-5.09-5.22A5,5,0,0,0,128.05,142.34Zm-6.33-5.22a6.32,6.32,0,1,1,6.33,6.25A6.22,6.22,0,0,1,121.72,137.12Z"/><path class="cls-3" d="M74.48,176.11l-.12-.68c0-4.23.23-8.54.35-12.69.51-10.64,1.25-21.67,2.79-32.14l40.78.05c-1.42,15.08-1.36,30.27-1.36,45.5Z"/></g></g></svg>