<svg id="Capa_1" data-name="Capa 1" xmlns="http://www.w3.org/2000/svg" viewBox="0 0 317.09 33.59"><defs><style>.cls-1{fill:#e2231a;}</style></defs><title>banorte</title><path class="cls-1" d="M85.09,17.14c0,.41,0,1.66-2.61,1.66H68.36V12.9H82.48c2.61,0,2.61,1.25,2.61,1.66Zm-16.73,6.7H82.48a4.35,4.35,0,0,1,2.06.32A2,2,0,0,1,85.25,26V28a2,2,0,0,1-.7,1.8,4.49,4.49,0,0,1-2.06.33H68.36ZM88,21.35a4.38,4.38,0,0,0,3.52-4.58V13.46c0-3.68-2.15-5.54-6.38-5.54H61.58V35.62H83.43c5.49,0,8.28-1.88,8.28-5.6V26.55A4.89,4.89,0,0,0,88,21.35" transform="translate(-3.66 -3.25)"/><path class="cls-1" d="M119.35,24.22H108.42L114,14.06Zm-1.94-16.3H111L95.3,35.62h7l3.15-5.94h16.86l3.26,5.94h7.76L117.49,8.06Z" transform="translate(-3.66 -3.25)"/><path class="cls-1" d="M163.83,22.45c0,.54.07,1.85.21,3.89A34.92,34.92,0,0,0,161.46,24L142.37,8l-.08-.06h-4.7V35.62h6.25v-15c0-.94-.06-2.11-.18-3.49a20.21,20.21,0,0,0,1.72,1.6L165.3,35.55l.08.07h4.7V7.92h-6.25Z" transform="translate(-3.66 -3.25)"/><path class="cls-1" d="M205.16,30H184.9V13.32h20.26Zm-.14-22H185c-2.69,0-4.49.46-5.5,1.39S178,12,178,14.62V28.92c0,2.63.49,4.37,1.51,5.31s2.81,1.39,5.5,1.39h20c2.7,0,4.49-.46,5.5-1.39S212,31.56,212,28.92V14.62c0-2.63-.49-4.37-1.51-5.31s-2.81-1.39-5.5-1.39" transform="translate(-3.66 -3.25)"/><path class="cls-1" d="M226.95,13.11h13.91a4.3,4.3,0,0,1,1.91.28,1.71,1.71,0,0,1,.66,1.61v3.28a1.72,1.72,0,0,1-.65,1.6,4.27,4.27,0,0,1-1.92.28H226.95Zm16.76,12.25c4.24,0,6.39-1.87,6.39-5.54V13.46c0-3.68-2.15-5.54-6.39-5.54H220.17V35.62h6.78V25.37h5.6l10.86,10.18.08.08h10L240.92,25.37Z" transform="translate(-3.66 -3.25)"/><polygon class="cls-1" points="251.68 10.07 264.14 10.07 264.14 32.37 271.02 32.37 271.02 10.07 283.54 10.07 283.54 4.67 251.68 4.67 251.68 10.07"/><polygon class="cls-1" points="295.86 26.7 295.86 20.54 308.73 20.54 308.73 15.34 295.86 15.34 295.86 9.86 316.82 9.86 316.82 4.67 288.98 4.67 288.98 32.37 317.09 32.37 317.09 26.7 295.86 26.7"/><path class="cls-1" d="M26.15,19.58,30.81,6.81V19.58c.68,0,1.38,0,2.08,0,12.78,0,23.15-3.42,23.15-8S45.67,3.25,32.89,3.25,9.72,7,9.72,11.59c0,3.77,6.93,7,16.42,8Z" transform="translate(-3.66 -3.25)"/><path class="cls-1" d="M25.8,20.53c-12.3.2-22.14,3.86-22.14,8.35,0,3.73,6.82,6.9,16.21,8L25.8,20.53Z" transform="translate(-3.66 -3.25)"/><path class="cls-1" d="M30.83,20.52V36.84C41.7,36.15,50,33,50,28.88s-8.27-7.67-19.15-8.35Z" transform="translate(-3.66 -3.25)"/></svg>