<svg id="Capa_1" data-name="Capa 1" xmlns="http://www.w3.org/2000/svg" viewBox="0 0 122.38 36.66"><defs><style>.cls-1{fill:#004779;fill-rule:evenodd;}</style></defs><title>bbva</title><path class="cls-1" d="M65.57,6.4H62.94a.41.41,0,0,0-.38.43.85.85,0,0,0,.1.34l1.7,3.2,14.3,26.77c.17.32.33.64.51,1a.6.6,0,0,0,.8.25A.74.74,0,0,0,80.3,38l2.58-4.83L95.27,10c.51-1,1-1.91,1.53-2.86a.47.47,0,0,0-.41-.73c-1.69,0-3.38,0-5.07,0a.6.6,0,0,0-.56.33l-.16.3L80.33,26.59a1.67,1.67,0,0,1-.14.24.61.61,0,0,1-1,0,1.6,1.6,0,0,1-.13-.22l-1.66-3.16L68.68,6.82A.7.7,0,0,0,68,6.39Z" transform="translate(-1.89 -1.75)"/><path class="cls-1" d="M121.26,33.76h2.6a.44.44,0,0,0,.38-.6,2,2,0,0,0-.12-.25l-6.42-12-10-18.68a2,2,0,0,0-.11-.2.6.6,0,0,0-1,0,1.94,1.94,0,0,0-.13.22L99.72,14.9l-9.63,18c0,.07-.08.14-.11.21a.44.44,0,0,0,.38.63H93.5c.63,0,1.25,0,1.88,0a.71.71,0,0,0,.75-.46v0l8.35-15.91,2-3.89a.64.64,0,0,1,.58-.4.63.63,0,0,1,.6.41c.09.18.19.36.29.55l10.13,19.27a.75.75,0,0,0,.75.46C119.67,33.75,120.47,33.76,121.26,33.76Z" transform="translate(-1.89 -1.75)"/><path class="cls-1" d="M24.12,21.17l.16.07a7.19,7.19,0,0,1,4.36,4.62,9.67,9.67,0,0,1,.44,3.7,11.27,11.27,0,0,1-.45,2.68,7.76,7.76,0,0,1-4.28,4.9,12.46,12.46,0,0,1-3.23,1,20.75,20.75,0,0,1-3.58.28H2.46a.57.57,0,0,1-.57-.55c0-.08,0-.15,0-.23q0-15.21,0-30.42s0,0,0,0c0-.52.25-.78.77-.78H18.35a10.61,10.61,0,0,1,4.75,1,7.68,7.68,0,0,1,4.17,4.8,8.39,8.39,0,0,1-.11,5.35,6.22,6.22,0,0,1-2.88,3.46ZM13,33.78h4.32a13.13,13.13,0,0,0,2.2-.17,6.93,6.93,0,0,0,2.1-.66,3.84,3.84,0,0,0,2.07-2.67,6.54,6.54,0,0,0-.08-3.15,3.47,3.47,0,0,0-2-2.35,6.73,6.73,0,0,0-1.06-.38A12.78,12.78,0,0,0,17.26,24H7.83a.63.63,0,0,0-.65.62c0,.07,0,.14,0,.21q0,4.06,0,8.12a1.6,1.6,0,0,0,0,.31.59.59,0,0,0,.53.48H13ZM12.92,11h0C11.28,11,9.64,11,8,11c-.59,0-.84.27-.84.83,0,2.25,0,4.51,0,6.76a2.5,2.5,0,0,0,0,.26.61.61,0,0,0,.55.55h9.33a7.59,7.59,0,0,0,2.6-.41,3.69,3.69,0,0,0,2.28-2.06,5.48,5.48,0,0,0,.28-3.4,2.69,2.69,0,0,0-1.37-1.81,4.61,4.61,0,0,0-.68-.31A7.84,7.84,0,0,0,17.54,11C16,11,14.46,11,12.92,11Z" transform="translate(-1.89 -1.75)"/><path class="cls-1" d="M57.25,21.17l.14.06A7.23,7.23,0,0,1,61.82,26a9.55,9.55,0,0,1,.4,3.3,11.35,11.35,0,0,1-.47,2.94,7.75,7.75,0,0,1-4.17,4.84,12.33,12.33,0,0,1-3.35,1,20.49,20.49,0,0,1-3.53.28H35.54a.56.56,0,0,1-.51-.5,1.92,1.92,0,0,1,0-.26Q35,22.4,35,7.17a2.22,2.22,0,0,1,0-.23.58.58,0,0,1,.56-.54H51.48A10.73,10.73,0,0,1,56,7.34a7.84,7.84,0,0,1,4.14,4.2A8.36,8.36,0,0,1,60.77,15a7.93,7.93,0,0,1-.63,3,6.22,6.22,0,0,1-2.72,3.05ZM46.13,33.78h4.06a15.2,15.2,0,0,0,2.1-.11A7.65,7.65,0,0,0,54.56,33a3.85,3.85,0,0,0,2.23-2.66,6.41,6.41,0,0,0-.1-3.38,3.37,3.37,0,0,0-1.82-2.15,7,7,0,0,0-1.2-.45A12.33,12.33,0,0,0,50.43,24H41.08c-.43,0-.82.2-.78.78,0,0,0,0,0,.05q0,4,0,8.1a1.85,1.85,0,0,0,0,.31.59.59,0,0,0,.54.5h5.27ZM46,11H40.9a.6.6,0,0,0-.59.59c0,.08,0,.15,0,.23q0,3.38,0,6.76c0,.08,0,.15,0,.23a.61.61,0,0,0,.55.58h8.69c.5,0,1,0,1.49,0A6.17,6.17,0,0,0,52.82,19a3.72,3.72,0,0,0,2.37-2.34,5.73,5.73,0,0,0,.22-2.89,2.79,2.79,0,0,0-1.1-1.82,3.71,3.71,0,0,0-1-.52,8.06,8.06,0,0,0-2.63-.4C49.13,11,47.59,11,46,11Z" transform="translate(-1.89 -1.75)"/><path class="cls-1" d="M65.57,6.4H68a.7.7,0,0,1,.69.42l8.74,16.63,1.66,3.16a1.6,1.6,0,0,0,.13.22.61.61,0,0,0,1,0,1.67,1.67,0,0,0,.14-.24L90.61,7l.16-.3a.6.6,0,0,1,.56-.33c1.69,0,3.38,0,5.07,0a.47.47,0,0,1,.41.73c-.51.95-1,1.9-1.53,2.86L82.88,33.16,80.3,38a.74.74,0,0,1-.32.36.6.6,0,0,1-.8-.25c-.18-.31-.34-.63-.51-1L64.37,10.37l-1.7-3.2a.85.85,0,0,1-.1-.34.41.41,0,0,1,.38-.43h2.62Z" transform="translate(-1.89 -1.75)"/><path class="cls-1" d="M121.26,33.76c-.8,0-1.59,0-2.39,0a.75.75,0,0,1-.75-.46L108,14c-.1-.18-.2-.36-.29-.55a.63.63,0,0,0-.6-.41.64.64,0,0,0-.58.4l-2,3.89L96.13,33.28v0a.71.71,0,0,1-.75.46c-.63,0-1.25,0-1.88,0H90.36a.44.44,0,0,1-.38-.63c0-.07.07-.14.11-.21l9.63-18,6.77-12.67a1.94,1.94,0,0,1,.13-.22.6.6,0,0,1,1,0,2,2,0,0,1,.11.2l10,18.68,6.42,12a2,2,0,0,1,.12.25.44.44,0,0,1-.38.6h-2.6Z" transform="translate(-1.89 -1.75)"/></svg>