<svg xmlns="http://www.w3.org/2000/svg" xmlns:xlink="http://www.w3.org/1999/xlink" viewBox="0 0 136.27 33.21"><defs><style>.cls-1{fill:none;}.cls-2{fill:#2c981d;}.cls-3{clip-path:url(#clip-path);}.cls-4{fill:#fadc01;}.cls-5{fill:#f20606;}.cls-6{fill:#d80212;}.cls-7,.cls-8{fill:#fff;}.cls-7{fill-rule:evenodd;}</style><clipPath id="clip-path"><rect class="cls-1" x="6.2" y="2.54" width="125" height="32"/></clipPath></defs><g id="Capa_2" data-name="Capa 2"><g id="Capa_1-2" data-name="Capa 1"><rect class="cls-2" width="136.27" height="33.21"/><g class="cls-3"><path class="cls-4" d="M119.37,15.25l10,11.74s1.33,1.13,1.33-.93V22.37a41.43,41.43,0,0,0,0-4.17,10.26,10.26,0,0,0-1.82-4.32,13.62,13.62,0,0,0-3.39-3.74s-1.18-.73-2.9,1.28Z"/><path class="cls-5" d="M108.86,26.55c.3-.35.59-.69.88-1.08.79-.94,1.58-1.87,2.31-2.75l3-3.64,3.24-3.83c1.18-1.37,2.36-2.7,3.54-4.07.78-.89,1.86-2.41,3.24-1.72.64.29,1.91,1.81,2.16,1.81,0-.09-1.38-1.62-1.67-2-.54-.64-3.44-4-4.32-5a5.86,5.86,0,0,1-.54-.64,2.24,2.24,0,0,0-3.49,0c-1.92,1.92-6.43,7.61-6.43,7.61s-3.34,4.47-3.59,5.95a26.16,26.16,0,0,0-.1,4c0,1.43,0,2.8.1,4.18C107.29,26.4,107.93,27.63,108.86,26.55Z"/><path class="cls-4" d="M119.37,15.25l10,11.74s1.33,1.13,1.33-.93V22.37a41.43,41.43,0,0,0,0-4.17,10.26,10.26,0,0,0-1.82-4.32,13.62,13.62,0,0,0-3.39-3.74s-1.18-.73-2.9,1.28Z"/><path class="cls-6" d="M108.86,26.55c.3-.35.59-.69.88-1.08.79-.94,1.58-1.87,2.31-2.75l3-3.64,3.24-3.83c1.18-1.37,2.36-2.7,3.54-4.07.78-.89,1.86-2.41,3.24-1.72.64.29,1.91,1.81,2.16,1.81,0-.09-1.38-1.62-1.67-2-.54-.64-3.44-4-4.32-5a5.86,5.86,0,0,1-.54-.64,2.24,2.24,0,0,0-3.49,0c-1.92,1.92-6.43,7.61-6.43,7.61s-3.34,4.47-3.59,5.95a26.16,26.16,0,0,0-.1,4c0,1.43,0,2.8.1,4.18C107.29,26.4,107.93,27.63,108.86,26.55Z"/><path class="cls-7" d="M56.51,10.59H53.27L49.53,22.28h2.66L53,19.77h3.69l.73,2.51h2.9Zm-2.9,7L54.89,13l1.18,4.57Z"/><path class="cls-8" d="M68.59,22.28H66.28V20.65h0a2.71,2.71,0,0,1-2.7,1.82c-2,0-2.8-1.67-2.8-3.49V13.53h2.56v4.23c0,1.62.49,2.21,1.17,2.21,1,0,1.58-.84,1.58-2.75V13.53h2.55Z"/><path class="cls-8" d="M75,16a2.51,2.51,0,0,0-.88-.1c-1.18,0-1.87,1-1.87,2.75v3.68H69.72V13.53H72v1.62h0c.44-1.13,1.08-1.81,2.16-1.81a6.56,6.56,0,0,1,.88.09Z"/><path class="cls-8" d="M80.87,16a2.56,2.56,0,0,0-.89-.1c-1.17,0-1.86,1-1.86,2.75v3.68H75.56V13.53h2.31v1.62h0c.44-1.13,1.08-1.81,2.16-1.81a6.71,6.71,0,0,1,.89.09Z"/><path class="cls-7" d="M85.63,20.46c-1.23,0-2-.44-2.16-1.67v-.05h5.11V18.2c0-2.6-1-4.91-3.73-4.91-2.26,0-3.93,1.67-3.93,4.57a4.2,4.2,0,0,0,4.27,4.56,6.21,6.21,0,0,0,2.7-.54V19.77A4.29,4.29,0,0,1,85.63,20.46Zm-.78-5.21c1,0,1.42.84,1.42,1.82H83.42C83.47,16.09,83.91,15.25,84.85,15.25Z"/><path class="cls-8" d="M94.72,16a2.56,2.56,0,0,0-.89-.1c-1.18,0-1.86,1-1.86,2.75v3.68H89.41V13.53h2.31v1.62h0c.44-1.13,1.08-1.81,2.16-1.81a6.71,6.71,0,0,1,.89.09Z"/><path class="cls-7" d="M100.09,21.55c0,.23,0,.47,0,.73v-.1h2.31a14.41,14.41,0,0,1-.15-2.07V16.87c0-2.7-1.62-3.63-3.49-3.63a6.47,6.47,0,0,0-2.94.64l.05,2.06a4.47,4.47,0,0,1,2.35-.64c.89,0,1.67.35,1.67,1.52a8.58,8.58,0,0,0-1.18-.09c-1.32,0-3.78.34-3.78,3a2.55,2.55,0,0,0,2.75,2.75A2.49,2.49,0,0,0,100,20.9h0C100.07,21.12,100.08,21.33,100.09,21.55ZM100,18.4c0,1-.59,2.06-1.57,2.06-.64,0-1.08-.35-1-.93,0-.89.64-1.18,1.52-1.18l.58,0Z"/><path class="cls-7" d="M6.47,22.37V10.24H9a3.61,3.61,0,0,1,2.26.64,2.9,2.9,0,0,1,1,2.46A2.64,2.64,0,0,1,10.79,16a2.88,2.88,0,0,1,1.76,2.85,3.37,3.37,0,0,1-1.17,2.8,4.63,4.63,0,0,1-2.75.73H6.47ZM8.63,21a3.25,3.25,0,0,0,1.81-.44,1.87,1.87,0,0,0,.84-1.72A1.88,1.88,0,0,0,10.44,17a4,4,0,0,0-1.91-.34H7.84V21Zm1.57-6a3,3,0,0,1-1.48.34l-.93.05V11.57H9a2.52,2.52,0,0,1,1.28.29,1.55,1.55,0,0,1,.68,1.48A1.83,1.83,0,0,1,10.2,15Z"/><path class="cls-7" d="M19.63,14.66a3.22,3.22,0,0,0-5.41,0,6,6,0,0,0-.83,3.24,5.92,5.92,0,0,0,.83,3.25,3.22,3.22,0,0,0,5.41,0,5.94,5.94,0,0,0,.83-3.25A5.82,5.82,0,0,0,19.63,14.66Zm-1.08,5.7a1.8,1.8,0,0,1-1.62,1,1.91,1.91,0,0,1-1.62-1,4.48,4.48,0,0,1-.59-2.46,4.58,4.58,0,0,1,.59-2.45,1.78,1.78,0,0,1,1.62-1,1.85,1.85,0,0,1,1.62,1,4.56,4.56,0,0,1,.59,2.45A4.69,4.69,0,0,1,18.55,20.36Z"/><path class="cls-7" d="M21.79,21.19a2.67,2.67,0,0,0,2.35,1.38,2.25,2.25,0,0,0,2.07-1.18v.93h1.23v-13H26.21v5.06a2.7,2.7,0,0,0-.4-.44,2.39,2.39,0,0,0-1.71-.74,2.72,2.72,0,0,0-2.41,1.37A6.78,6.78,0,0,0,21,17.9,6.15,6.15,0,0,0,21.79,21.19Zm4-1a1.71,1.71,0,0,1-1.52,1.13,1.63,1.63,0,0,1-1.57-1.08,6,6,0,0,1-.39-2.35,6,6,0,0,1,.39-2.36,1.7,1.7,0,0,1,1.57-1.08,1.66,1.66,0,0,1,1.52,1.13,5.77,5.77,0,0,1,.45,2.31A6.08,6.08,0,0,1,25.81,20.16Z"/><path class="cls-7" d="M28.37,17.86a6.2,6.2,0,0,0,.78,3.33,3,3,0,0,0,2.71,1.38A4.87,4.87,0,0,0,34,22.08l.09,0V20.51l-.24.19a4,4,0,0,1-1.92.59,1.91,1.91,0,0,1-1.62-.88,3.7,3.7,0,0,1-.59-2.06h4.91v-.69a6.17,6.17,0,0,0-.68-3.1,2.64,2.64,0,0,0-2.36-1.37,2.76,2.76,0,0,0-2.36,1.33A5.8,5.8,0,0,0,28.37,17.86Zm4.57-2.56a4.21,4.21,0,0,1,.39,1.82H29.69a4.22,4.22,0,0,1,.54-1.77,1.71,1.71,0,0,1,1.43-.88A1.38,1.38,0,0,1,32.94,15.3Z"/><path class="cls-7" d="M35.93,25.52a6.08,6.08,0,0,0,2.21.49,3,3,0,0,0,2.75-1.43,5.9,5.9,0,0,0,.79-3.19v-8.1H40.45V14a2.4,2.4,0,0,0-2.11-.89,2.71,2.71,0,0,0-2.41,1.38,6.73,6.73,0,0,0-.69,3.34,6.17,6.17,0,0,0,.69,2.94,2.67,2.67,0,0,0,2.51,1.53A2.28,2.28,0,0,0,40.5,21.1a6.68,6.68,0,0,1-.34,2.4,1.89,1.89,0,0,1-2,1.23,3.8,3.8,0,0,1-2-.59L35.93,24l-.1,1.48ZM40,20.07a1.74,1.74,0,0,1-1.57,1,1.49,1.49,0,0,1-1.43-1,5.31,5.31,0,0,1-.44-2.25A6,6,0,0,1,37,15.5a1.71,1.71,0,0,1,1.57-1.08,1.59,1.59,0,0,1,1.53.93,6,6,0,0,1,.44,2.51A4.78,4.78,0,0,1,40,20.07Z"/><path class="cls-7" d="M42.56,19.92A3.15,3.15,0,0,0,43,21.54a2.23,2.23,0,0,0,2.12,1,2.72,2.72,0,0,0,2.16-1.13v.93H48.5v-.19c0-.59,0-1.13,0-1.82V16.48a4.18,4.18,0,0,0-.63-2.55,2.4,2.4,0,0,0-2.07-.84,5.87,5.87,0,0,0-2.21.64l-.09,0v1.47l.24-.19a3.15,3.15,0,0,1,2-.69,1.19,1.19,0,0,1,1.13.49,2.61,2.61,0,0,1,.35,1.57v.3a8,8,0,0,0-3,.44A2.7,2.7,0,0,0,42.56,19.92Zm1.28,0a1.67,1.67,0,0,1,1-1.62A5.17,5.17,0,0,1,47,18h.1v.35a4.26,4.26,0,0,1-.25,1.86,1.7,1.7,0,0,1-1.72,1.13,1.46,1.46,0,0,1-.93-.29A1.32,1.32,0,0,1,43.84,20Z"/></g></g></g></svg>