<?xml version="1.0" encoding="utf-8"?>
<!-- Generator: Adobe Illustrator 24.1.3, SVG Export Plug-In . SVG Version: 6.00 Build 0)  -->
<svg version="1.1" id="Layer_1" xmlns="http://www.w3.org/2000/svg" xmlns:xlink="http://www.w3.org/1999/xlink" x="0px" y="0px"
	 viewBox="0 0 932 166" style="enable-background:new 0 0 932 166;" xml:space="preserve">
<style type="text/css">
	.st0{fill-rule:evenodd;clip-rule:evenodd;fill:#15344F;}
	.st1{fill-rule:evenodd;clip-rule:evenodd;fill:#EE7D00;}
	.st2{fill-rule:evenodd;clip-rule:evenodd;}
	.st3{fill-rule:evenodd;clip-rule:evenodd;fill:#FFFFFF;}
	.st4{fill-rule:evenodd;clip-rule:evenodd;fill:#FBCF9E;}
	.st5{fill-rule:evenodd;clip-rule:evenodd;fill:#15263F;}
	.st6{fill-rule:evenodd;clip-rule:evenodd;fill:#006F3B;}
	.st7{fill-rule:evenodd;clip-rule:evenodd;fill:#19355D;}
</style>
<g>
	<g>
		<path class="st0" d="M46.2,46.7h-25L13,133.1h14.6l4.1-42.9h10.3l0.9-9.1H32.6c0.8-8.4,1.6-16.8,2.4-25.2h10.3L46.2,46.7z"/>
		<path class="st0" d="M657.8,69.5c-0.3,0.9-0.6,1.9-0.9,3c-0.2,1.1-0.4,2.4-0.6,3.8l-4.3,45.4c-0.1,1.3-0.2,2.6-0.2,3.7
			c0,1.1,0.1,2.1,0.3,2.9c0.2,0.8,0.4,1.5,0.7,2.1c0.3,0.6,0.6,1,1,1.4c0.4,0.4,1,0.7,1.7,1c0.7,0.3,1.6,0.6,2.6,0.8
			c1.1,0.2,2.3,0.4,3.7,0.5c1.4,0.1,2.9,0.2,4.6,0.2c1.8,0,3.4-0.1,4.9-0.2c1.5-0.1,2.8-0.3,3.9-0.5c1.1-0.2,2.1-0.5,2.9-0.8
			c0.8-0.3,1.5-0.7,2-1c0.5-0.4,1-0.9,1.4-1.5c0.4-0.6,0.8-1.3,1.2-2.2c0.3-0.9,0.6-1.9,0.9-3c0.2-1.1,0.4-2.4,0.6-3.7l4.3-45.4
			c0.1-1.3,0.2-2.6,0.2-3.7c0-1.1-0.1-2.1-0.3-3c-0.2-0.8-0.4-1.5-0.7-2.1c-0.3-0.6-0.6-1.1-1.1-1.5c-0.4-0.4-1-0.7-1.7-1
			c-0.7-0.3-1.6-0.6-2.7-0.8c-1.1-0.2-2.3-0.4-3.7-0.5c-1.4-0.1-3-0.2-4.7-0.2c-1.7,0-3.3,0.1-4.7,0.2c-1.4,0.1-2.7,0.3-3.8,0.5
			c-1.1,0.2-2.1,0.5-2.9,0.8c-0.8,0.3-1.5,0.7-2,1.1c-0.5,0.4-1,0.9-1.4,1.5C658.5,67.9,658.1,68.6,657.8,69.5L657.8,69.5z
			 M664.7,121.5l4.4-45.8c0-0.4,0.1-0.7,0.1-1.1c0.1-0.3,0.1-0.6,0.2-0.9c0.1-0.3,0.2-0.6,0.3-0.8c0.1-0.2,0.2-0.5,0.4-0.6
			c0.2-0.2,0.3-0.4,0.5-0.5c0.2-0.1,0.4-0.3,0.7-0.4c0.2-0.1,0.5-0.2,0.7-0.2c0.3,0,0.5-0.1,0.8-0.1c0.3,0,0.5,0,0.8,0.1
			c0.3,0.1,0.5,0.1,0.7,0.3c0.2,0.1,0.4,0.3,0.6,0.5c0.2,0.2,0.3,0.4,0.5,0.7c0.1,0.2,0.2,0.4,0.2,0.7c0.1,0.3,0.1,0.5,0.1,0.8
			c0,0.3,0,0.5,0,0.9c0,0.3,0,0.6-0.1,1l-4.4,45.8c0,0.4-0.1,0.8-0.1,1.1c-0.1,0.3-0.1,0.7-0.2,0.9c-0.1,0.3-0.2,0.6-0.3,0.8
			c-0.1,0.3-0.2,0.5-0.4,0.7c-0.2,0.2-0.3,0.3-0.5,0.5c-0.2,0.1-0.4,0.3-0.6,0.3c-0.2,0.1-0.4,0.1-0.7,0.2c-0.2,0-0.5,0.1-0.7,0.1
			c-0.3,0-0.6,0-0.8-0.1c-0.3-0.1-0.5-0.1-0.7-0.3c-0.2-0.1-0.5-0.3-0.7-0.5c-0.2-0.2-0.3-0.4-0.5-0.6c0,0,0,0,0-0.1
			c-0.1-0.2-0.2-0.5-0.3-0.7c-0.1-0.3-0.1-0.5-0.2-0.8c0-0.3,0-0.6,0-0.9C664.6,122.2,664.6,121.9,664.7,121.5z"/>
		<path class="st0" d="M649.5,90.8l1.1-12c0.2-1.6,0.2-3.1,0.3-4.4c0-1.3,0-2.5-0.1-3.6c-0.1-1-0.2-1.9-0.4-2.7
			c-0.2-0.8-0.4-1.4-0.7-1.9c-0.3-0.5-0.6-0.9-1.1-1.3c-0.4-0.4-0.9-0.7-1.4-0.9c-0.6-0.3-1.2-0.4-2-0.6c-0.7-0.1-1.6-0.2-2.4-0.2
			c-0.3,0-0.6,0-0.9,0.1c-0.3,0-0.6,0.1-0.9,0.2c-0.3,0.1-0.7,0.2-1,0.3c-0.3,0.1-0.7,0.2-1,0.4c-0.4,0.2-0.7,0.3-1.1,0.5
			c-0.3,0.2-0.7,0.4-1,0.6c-0.3,0.2-0.6,0.4-1,0.7c-0.3,0.2-0.6,0.5-0.9,0.7l-2,1.8l0.4-4.4h-12.5l-6.7,69.8h12.5l5.5-57.5
			c0-0.4,0.1-0.7,0.1-1c0.1-0.3,0.1-0.6,0.2-0.9c0.1-0.3,0.2-0.6,0.3-0.8c0.1-0.2,0.3-0.5,0.4-0.6c0.2-0.2,0.3-0.4,0.5-0.5v0
			c0.2-0.1,0.4-0.3,0.6-0.3c0.2-0.1,0.5-0.2,0.7-0.2c0.2,0,0.5-0.1,0.8-0.1c0.3,0,0.5,0,0.8,0.1c0.3,0,0.5,0.1,0.7,0.2
			c0.3,0.1,0.5,0.3,0.7,0.4c0.2,0.2,0.3,0.3,0.5,0.5l0,0.1c0.1,0.2,0.2,0.4,0.3,0.7c0.1,0.2,0.1,0.5,0.2,0.8c0,0.3,0,0.5,0,0.9
			c0,0.3,0,0.6-0.1,1l-1.4,14.3H649.5z"/>
		<path class="st0" d="M612.7,90.8l1.1-12c0.2-1.6,0.2-3.1,0.3-4.4c0-1.3,0-2.5-0.1-3.6c-0.1-1-0.2-1.9-0.4-2.7
			c-0.2-0.8-0.4-1.4-0.8-1.9c-0.3-0.5-0.6-0.9-1.1-1.3c-0.4-0.4-0.9-0.7-1.4-0.9c-0.6-0.3-1.2-0.4-2-0.6c-0.7-0.1-1.6-0.2-2.5-0.2
			c-0.3,0-0.6,0-0.9,0.1c-0.3,0-0.6,0.1-0.9,0.2c-0.3,0.1-0.7,0.2-1,0.3c-0.3,0.1-0.7,0.2-1.1,0.4c-0.4,0.1-0.7,0.3-1.1,0.5
			c-0.3,0.2-0.7,0.4-1,0.6c-0.3,0.2-0.6,0.4-1,0.7c-0.3,0.2-0.6,0.5-0.9,0.7l-2.1,1.8l0.4-4.4h-12.5l-6.7,69.8h12.5l5.5-57.5
			c0-0.4,0.1-0.7,0.1-1c0.1-0.3,0.1-0.6,0.2-0.9c0.1-0.3,0.2-0.6,0.3-0.8c0.1-0.2,0.3-0.5,0.4-0.6c0.2-0.2,0.3-0.4,0.5-0.5
			c0.2-0.1,0.4-0.3,0.7-0.3c0.2-0.1,0.5-0.2,0.7-0.2c0.2,0,0.5-0.1,0.8-0.1c0.3,0,0.5,0,0.8,0.1c0.3,0,0.5,0.1,0.7,0.2
			c0.3,0.1,0.5,0.3,0.7,0.4c0.2,0.2,0.4,0.4,0.5,0.6c0.1,0.2,0.2,0.4,0.3,0.7c0.1,0.3,0.1,0.5,0.2,0.8c0,0.3,0,0.5,0,0.9
			c0,0.3,0,0.6-0.1,1l-1.4,14.3H612.7z"/>
		<path class="st0" d="M546.5,69.5c-0.3,0.9-0.6,1.9-0.9,3c-0.2,1.1-0.4,2.4-0.6,3.8l-4.3,45.4c-0.1,1.3-0.2,2.6-0.2,3.7
			c0,1.1,0.1,2.1,0.3,2.9c0.2,0.8,0.4,1.5,0.7,2.1c0.3,0.6,0.6,1,1,1.4c0.4,0.4,1,0.7,1.7,1c0.7,0.3,1.6,0.6,2.6,0.8
			c1.1,0.2,2.3,0.4,3.7,0.5c1.4,0.1,2.9,0.2,4.6,0.2c1.8,0,3.4-0.1,4.8-0.2c1.5-0.1,2.8-0.3,3.9-0.5c1.1-0.2,2.1-0.5,2.9-0.8
			c0.8-0.3,1.5-0.7,2-1c0.5-0.4,1-0.9,1.4-1.5c0.4-0.6,0.8-1.3,1.2-2.2c0.3-0.9,0.6-1.9,0.9-3c0.2-1.1,0.4-2.4,0.6-3.7l4.3-45.4
			c0.1-1.3,0.2-2.6,0.2-3.7c0-1.1-0.1-2.1-0.3-3c-0.2-0.8-0.4-1.5-0.7-2.1c-0.3-0.6-0.6-1.1-1.1-1.5l0,0c-0.4-0.4-1-0.7-1.7-1
			c-0.7-0.3-1.6-0.6-2.7-0.8c-1.1-0.2-2.3-0.4-3.7-0.5c-1.4-0.1-3-0.2-4.7-0.2c-1.7,0-3.3,0.1-4.7,0.2c-1.4,0.1-2.7,0.3-3.8,0.5
			c-1.1,0.2-2.1,0.5-2.9,0.8c-0.8,0.3-1.5,0.7-2,1.1c-0.5,0.4-1,0.9-1.4,1.5C547.3,67.9,546.9,68.6,546.5,69.5L546.5,69.5z
			 M553.4,121.5l4.4-45.8c0-0.4,0.1-0.7,0.1-1.1c0.1-0.3,0.1-0.6,0.2-0.9c0.1-0.3,0.2-0.6,0.3-0.8c0.1-0.2,0.2-0.5,0.4-0.6
			c0.2-0.2,0.3-0.4,0.5-0.5c0.2-0.1,0.4-0.3,0.7-0.4c0.2-0.1,0.5-0.2,0.7-0.2c0.3,0,0.5-0.1,0.8-0.1c0.3,0,0.5,0,0.8,0.1
			c0.3,0.1,0.5,0.1,0.7,0.3c0.2,0.1,0.4,0.3,0.6,0.5c0.2,0.2,0.3,0.4,0.5,0.7c0.1,0.2,0.2,0.4,0.2,0.7c0.1,0.3,0.1,0.5,0.1,0.8
			c0,0.3,0,0.5,0,0.9c0,0.3,0,0.6-0.1,1l-4.4,45.8c0,0.4-0.1,0.8-0.1,1.1c-0.1,0.3-0.1,0.7-0.2,0.9c-0.1,0.3-0.2,0.6-0.3,0.8
			c-0.1,0.3-0.2,0.5-0.4,0.7c-0.1,0.2-0.3,0.3-0.5,0.5l0,0c-0.2,0.1-0.4,0.3-0.6,0.3c-0.2,0.1-0.4,0.1-0.7,0.2
			c-0.2,0-0.5,0.1-0.7,0.1c-0.3,0-0.6,0-0.8-0.1c-0.3-0.1-0.5-0.1-0.7-0.3c-0.2-0.1-0.5-0.3-0.7-0.5c-0.2-0.2-0.4-0.4-0.5-0.6
			c-0.1-0.2-0.2-0.5-0.3-0.7c-0.1-0.3-0.1-0.5-0.2-0.9c0-0.3,0-0.6,0-0.9C553.4,122.2,553.4,121.9,553.4,121.5z"/>
		<path class="st0" d="M522.8,47.4h-12.6l-8.2,86.3h12.6l5.5-57.5c0-0.4,0.1-0.7,0.1-1c0.1-0.3,0.1-0.6,0.2-0.9
			c0.1-0.3,0.2-0.6,0.3-0.8c0.1-0.2,0.2-0.5,0.4-0.6l0,0c0.2-0.2,0.3-0.3,0.5-0.5c0.2-0.1,0.4-0.3,0.6-0.3c0.2-0.1,0.5-0.1,0.7-0.2
			c0.2,0,0.5-0.1,0.8-0.1c0.3,0,0.5,0,0.8,0.1c0.2,0,0.5,0.1,0.7,0.2c0.2,0.1,0.5,0.2,0.6,0.4c0.2,0.2,0.3,0.3,0.5,0.5
			c0,0,0,0,0,0.1c0.1,0.2,0.2,0.4,0.3,0.7c0.1,0.2,0.1,0.5,0.1,0.8c0,0.3,0,0.6,0,0.9c0,0.3,0,0.6-0.1,1l-5.5,57.2h12.8l5.2-54.9
			c0.2-1.6,0.2-3.1,0.3-4.5c0-1.3,0-2.6-0.1-3.6c-0.1-1-0.3-1.9-0.5-2.7c-0.2-0.8-0.5-1.4-0.8-1.9c-0.3-0.5-0.7-0.9-1.1-1.3
			c-0.4-0.4-1-0.7-1.5-0.9c-0.6-0.3-1.3-0.5-2.1-0.6c-0.8-0.1-1.6-0.2-2.6-0.2c-0.7,0-1.3,0.1-2,0.2c-0.3,0.1-0.6,0.1-1,0.3
			c-0.3,0.1-0.7,0.2-1,0.4h0c-0.3,0.1-0.7,0.3-1,0.5c-0.3,0.2-0.7,0.4-1,0.6c-0.3,0.2-0.7,0.4-1,0.7c-0.3,0.2-0.7,0.5-1,0.8l-2,1.6
			L522.8,47.4z"/>
		<path class="st0" d="M494.8,47.4h-21.1l-17.9,86.3h14.4l3.1-18.8h9.2l-0.5,18.8h14.5L494.8,47.4L494.8,47.4z M474.8,104l6.7-41.1
			h2.5l0,0.5c-0.4,11.6-0.7,23.2-1.1,34.8l-0.2,7.1h-8.2L474.8,104z"/>
		<polygon class="st0" points="444.3,120.4 432.2,120.4 430.9,133.7 443.1,133.7 		"/>
		<path class="st0" d="M440.1,90.8l1.1-12c0.2-1.6,0.2-3.1,0.3-4.4c0-1.3,0-2.5-0.1-3.6c-0.1-1-0.2-1.9-0.4-2.7
			c-0.2-0.8-0.5-1.4-0.8-1.9c-0.3-0.5-0.6-0.9-1.1-1.3c-0.4-0.4-0.9-0.7-1.4-0.9c-0.6-0.3-1.2-0.4-2-0.6c-0.7-0.1-1.6-0.2-2.4-0.2
			c-0.3,0-0.6,0-0.9,0.1c-0.3,0-0.6,0.1-0.9,0.2c-0.3,0.1-0.7,0.2-1,0.3c-0.3,0.1-0.7,0.2-1.1,0.4c-0.4,0.1-0.7,0.3-1.1,0.5
			c-0.3,0.2-0.7,0.4-1,0.6c-0.3,0.2-0.6,0.4-1,0.7c-0.3,0.2-0.6,0.5-0.9,0.7l-2.1,1.8l0.4-4.4h-12.5l-6.7,69.8h12.5l5.5-57.5
			c0-0.4,0.1-0.7,0.1-1c0.1-0.3,0.1-0.6,0.2-0.9c0.1-0.3,0.2-0.6,0.3-0.8c0.1-0.2,0.3-0.5,0.4-0.6c0.2-0.2,0.3-0.4,0.5-0.5
			c0.2-0.1,0.4-0.3,0.6-0.3c0.2-0.1,0.5-0.2,0.7-0.2c0.2,0,0.5-0.1,0.8-0.1c0.3,0,0.5,0,0.8,0.1c0.3,0,0.5,0.1,0.7,0.2
			c0.2,0.1,0.5,0.3,0.7,0.4c0.2,0.2,0.4,0.4,0.5,0.6c0.1,0.2,0.2,0.4,0.3,0.7c0.1,0.2,0.1,0.5,0.2,0.8c0,0.3,0,0.5,0,0.9
			c0,0.3,0,0.6-0.1,1l-1.4,14.3H440.1z"/>
		<path class="st0" d="M389.9,47.4h-20l-8.2,86.3h19.8c1.9,0,3.7-0.1,5.3-0.2c1.6-0.1,3-0.3,4.3-0.6c1.2-0.2,2.3-0.5,3.2-0.9
			c0.9-0.3,1.6-0.7,2.1-1.2c0.5-0.4,1-1,1.5-1.8c0.5-0.8,0.9-1.8,1.3-2.9c0.4-1.2,0.7-2.6,1-4.2c0.3-1.6,0.5-3.3,0.7-5.3l5-52.4
			c0.2-1.9,0.3-3.7,0.3-5.3c0-1.6-0.1-3-0.2-4.2c-0.1-1.1-0.4-2.1-0.7-2.9c-0.3-0.8-0.6-1.3-1.1-1.8c-0.4-0.4-1-0.8-1.8-1.1
			c-0.8-0.3-1.8-0.6-2.9-0.9c-1.2-0.2-2.6-0.4-4.2-0.6C393.7,47.5,391.9,47.4,389.9,47.4L389.9,47.4z M377.7,123.2l6.3-66.4h2.2
			c0.4,0,0.8,0,1.2,0.1c0.4,0,0.7,0.1,1,0.2c0.4,0.1,0.7,0.2,1,0.3c0.3,0.1,0.5,0.3,0.7,0.5l0,0c0.2,0.2,0.4,0.5,0.5,0.9
			c0.1,0.3,0.2,0.7,0.2,1.2c0,0.4,0,0.8,0,1.3c0,0.5,0,1-0.1,1.6l-5.3,55.9c-0.1,0.6-0.1,1.1-0.2,1.5c-0.1,0.5-0.2,0.9-0.3,1.2
			c-0.1,0.4-0.2,0.8-0.4,1.1c-0.2,0.3-0.4,0.6-0.6,0.8c-0.2,0.2-0.4,0.4-0.7,0.5c-0.3,0.1-0.6,0.2-0.9,0.3c-0.3,0.1-0.6,0.1-1,0.2
			c-0.4,0-0.7,0.1-1.1,0.1h-2.7L377.7,123.2z"/>
		<path class="st0" d="M318,109.3h-12.4l-0.9,9.5c-0.2,1.8-0.3,3.4-0.3,4.8c0,1.4,0.1,2.7,0.2,3.7c0.1,1,0.3,1.8,0.6,2.5
			c0.3,0.6,0.6,1.1,0.9,1.5c0.4,0.4,0.9,0.7,1.6,1c0.7,0.3,1.6,0.5,2.6,0.7c1.1,0.2,2.3,0.4,3.7,0.5c1.4,0.1,3,0.2,4.7,0.2
			c1.8,0,3.5-0.1,5-0.2c1.5-0.1,2.8-0.3,4-0.5c1.1-0.2,2.1-0.5,2.9-0.8c0.8-0.3,1.4-0.6,1.9-1c0.5-0.4,0.9-0.9,1.3-1.6
			c0.4-0.7,0.8-1.6,1.1-2.6c0.4-1.1,0.7-2.4,0.9-3.8c0.3-1.4,0.5-3,0.7-4.8l1.1-11.3c0.1-0.9,0.1-1.7,0.2-2.4c0-0.7,0-1.4-0.1-2
			c0-0.6-0.1-1.1-0.2-1.5c-0.1-0.4-0.2-0.8-0.4-1.1c-0.2-0.3-0.4-0.6-0.6-0.9c-0.2-0.3-0.5-0.6-0.8-0.9c-0.3-0.3-0.7-0.6-1.1-0.9
			c-0.4-0.3-0.9-0.6-1.4-0.8c-2.4-1.3-4.9-2.5-7.2-3.9l-0.2-0.1l-0.6-0.3c-0.8-0.5-1.6-0.9-2.2-1.5c-0.6-0.5-1.2-1.1-1.6-1.7
			c-0.4-0.6-0.7-1.3-0.9-2c-0.2-0.7-0.2-1.5-0.2-2.3l0.9-9.8c0-0.4,0.1-0.7,0.1-1c0.1-0.3,0.1-0.6,0.2-0.9c0.1-0.3,0.2-0.6,0.3-0.8
			c0.1-0.3,0.2-0.5,0.4-0.7c0.2-0.2,0.3-0.4,0.5-0.6c0.2-0.2,0.4-0.3,0.7-0.4c0.2-0.1,0.5-0.2,0.7-0.2c0.3,0,0.5-0.1,0.8-0.1
			c0.3,0,0.6,0,0.8,0.1c0.3,0.1,0.5,0.1,0.8,0.2c0.3,0.1,0.5,0.3,0.7,0.5c0.2,0.2,0.4,0.4,0.5,0.6l0,0l0,0.1
			c0.1,0.2,0.2,0.5,0.3,0.7c0.1,0.3,0.1,0.6,0.2,0.9c0,0.3,0,0.6,0,0.9c0,0.3,0,0.7-0.1,1l-0.9,9.7h12.3l0.7-7.3
			c0.2-1.8,0.3-3.4,0.3-4.8c0-1.4-0.1-2.7-0.2-3.8c-0.1-1-0.3-1.9-0.6-2.5c-0.2-0.7-0.5-1.1-0.9-1.5c-0.4-0.4-0.9-0.7-1.5-1
			c-0.7-0.3-1.5-0.5-2.5-0.8c-1-0.2-2.2-0.4-3.6-0.5c-1.3-0.1-2.9-0.2-4.5-0.2c-1.9,0-3.6,0.1-5.1,0.2c-1.5,0.1-2.9,0.3-4.1,0.5
			c-1.2,0.2-2.2,0.5-3,0.8c-0.8,0.3-1.5,0.7-2,1.1c-0.5,0.4-1,1-1.4,1.6c-0.4,0.7-0.8,1.5-1.2,2.4c-0.4,1-0.7,2.1-0.9,3.3
			c-0.2,1.2-0.4,2.6-0.6,4.1l-0.9,9.5c-0.1,1-0.2,2-0.2,2.8c0,0.8,0,1.6,0.1,2.3c0.1,0.6,0.2,1.2,0.3,1.7c0.1,0.5,0.3,0.8,0.5,1.2
			c0.2,0.3,0.5,0.7,0.8,1c0.3,0.3,0.7,0.7,1.1,1c0.4,0.3,0.9,0.7,1.5,1c0.6,0.3,1.2,0.7,1.8,1l6.8,3.3c0.4,0.2,0.8,0.5,1.2,0.7
			c0.4,0.2,0.7,0.5,1,0.7c0.3,0.2,0.6,0.5,0.9,0.7c0.3,0.2,0.5,0.5,0.7,0.7v0c0.2,0.3,0.4,0.6,0.6,0.9c0.1,0.3,0.3,0.7,0.3,1.1
			c0.1,0.4,0.1,0.8,0.1,1.2c0,0.4,0,0.9-0.1,1.3l-1.2,12.8c0,0.4-0.1,0.7-0.2,1.1c-0.1,0.3-0.1,0.6-0.2,0.9
			c-0.1,0.3-0.2,0.6-0.3,0.8c-0.1,0.3-0.3,0.5-0.4,0.7c-0.2,0.2-0.4,0.4-0.6,0.5c-0.2,0.1-0.4,0.3-0.7,0.4c-0.2,0.1-0.5,0.1-0.7,0.2
			c-0.3,0-0.5,0.1-0.8,0.1c-0.3,0-0.6,0-0.8-0.1c-0.3-0.1-0.5-0.1-0.7-0.2c-0.3-0.1-0.5-0.3-0.7-0.5c-0.2-0.2-0.4-0.4-0.5-0.7
			c-0.1-0.2-0.2-0.5-0.3-0.7c-0.1-0.3-0.1-0.6-0.1-0.9c0-0.3,0-0.6,0-0.9c0-0.3,0-0.6,0.1-1L318,109.3z"/>
		<path class="st0" d="M297.7,133.1l5.5-57.8c0.1-1.3,0.2-2.6,0.2-3.7c0-1.1-0.1-2.1-0.3-3c-0.2-0.8-0.4-1.5-0.7-2.1
			c-0.3-0.6-0.6-1-1-1.4c-0.4-0.4-1-0.7-1.7-1c-0.7-0.3-1.6-0.6-2.6-0.8c-1.1-0.2-2.3-0.4-3.7-0.5c-1.4-0.1-3-0.2-4.7-0.2
			c-1.7,0-3.3,0.1-4.7,0.2c-1.4,0.1-2.7,0.3-3.8,0.5c-1.1,0.2-2,0.5-2.9,0.8c-0.8,0.3-1.5,0.7-2,1.1c-0.5,0.4-1,0.9-1.4,1.5
			c-0.4,0.6-0.8,1.4-1.1,2.2c-0.3,0.9-0.6,1.9-0.9,3c-0.2,1.1-0.4,2.4-0.6,3.8l-0.9,9.6h12.3l1-10.2c0-0.4,0.1-0.7,0.1-1
			c0.1-0.3,0.1-0.6,0.2-0.9c0.1-0.3,0.2-0.6,0.3-0.8c0.1-0.3,0.2-0.5,0.4-0.7c0.2-0.2,0.3-0.4,0.6-0.6c0.2-0.2,0.4-0.3,0.7-0.4
			c0.2-0.1,0.5-0.2,0.8-0.3c0.3-0.1,0.5-0.1,0.8-0.1c0.3,0,0.6,0,0.8,0.1c0.3,0.1,0.5,0.1,0.8,0.3c0.3,0.1,0.5,0.3,0.7,0.5
			c0.2,0.2,0.4,0.4,0.5,0.7c0.1,0.2,0.2,0.5,0.3,0.8c0.1,0.3,0.1,0.6,0.2,0.9c0,0.3,0,0.6,0,0.9c0,0.3,0,0.7-0.1,1.1l-1.4,14.4
			l-13.5,6.6c-0.7,0.3-1.3,0.7-1.8,1c-0.6,0.3-1.1,0.7-1.6,1c-0.5,0.3-0.9,0.7-1.2,1c-0.4,0.3-0.7,0.7-0.9,1
			c-0.3,0.3-0.5,0.7-0.7,1.1c-0.2,0.4-0.4,0.9-0.6,1.3c-0.2,0.5-0.3,1-0.4,1.6c-0.1,0.6-0.2,1.2-0.3,1.8l-1.2,12.4
			c-0.2,1.6-0.2,3-0.3,4.3c0,1.3,0,2.5,0.1,3.5c0.1,1,0.2,1.8,0.4,2.6c0.2,0.7,0.4,1.3,0.7,1.7c0.3,0.4,0.6,0.8,1,1.1
			c0.4,0.3,0.8,0.6,1.4,0.8c0.6,0.2,1.2,0.4,1.9,0.5c0.7,0.1,1.5,0.2,2.4,0.2c0.4,0,0.8,0,1.1,0c0.4,0,0.8-0.1,1.1-0.1
			c0.4-0.1,0.8-0.1,1.1-0.2c0.4-0.1,0.7-0.2,1.1-0.3c0.4-0.1,0.7-0.3,1.1-0.4c0.4-0.2,0.7-0.3,1-0.5c0.3-0.2,0.7-0.4,1-0.6
			c0.3-0.2,0.6-0.5,1-0.7l2.4-2l-0.4,4.6H297.7L297.7,133.1z M283.9,101.3l4.7-2.5l-2.2,22.6c0,0.4-0.1,0.8-0.1,1.1
			c-0.1,0.3-0.1,0.7-0.2,0.9c-0.1,0.3-0.2,0.6-0.3,0.9c-0.1,0.3-0.2,0.5-0.4,0.7c-0.2,0.2-0.3,0.4-0.5,0.6c-0.2,0.2-0.4,0.3-0.7,0.4
			c-0.2,0.1-0.5,0.2-0.7,0.2c-0.3,0-0.5,0.1-0.8,0.1c-0.3,0-0.6,0-0.9-0.1c-0.3-0.1-0.5-0.1-0.8-0.3c-0.3-0.1-0.5-0.3-0.7-0.5
			c-0.2-0.2-0.4-0.4-0.5-0.7c-0.1-0.2-0.2-0.5-0.3-0.8c-0.1-0.3-0.1-0.6-0.2-0.9c0-0.3,0-0.6,0-0.9c0-0.3,0-0.7,0.1-1l1.4-15.1
			c0-0.3,0.1-0.5,0.1-0.8c0.1-0.2,0.1-0.5,0.2-0.7c0.1-0.2,0.2-0.5,0.3-0.7c0.1-0.2,0.2-0.4,0.4-0.6c0.1-0.2,0.3-0.4,0.4-0.6
			c0.2-0.2,0.3-0.3,0.5-0.5c0.2-0.2,0.4-0.3,0.6-0.4C283.5,101.5,283.7,101.4,283.9,101.3z"/>
		<path class="st0" d="M268.6,46.7h-12.1l-0.8,7.9h12.1L268.6,46.7L268.6,46.7z M267,63.1h-12.1l-6.7,69.9h12.1L267,63.1z"/>
		<path class="st0" d="M246.8,90.1l1.4-14.9c0.1-1.3,0.2-2.6,0.2-3.7c0-1.1-0.1-2.1-0.3-2.9c-0.2-0.8-0.4-1.5-0.7-2.1
			c-0.3-0.6-0.6-1-1-1.4c-0.4-0.4-1-0.7-1.7-1c-0.7-0.3-1.6-0.6-2.6-0.8c-1.1-0.2-2.3-0.4-3.7-0.5c-1.4-0.1-3-0.2-4.7-0.2
			c-1.7,0-3.3,0.1-4.7,0.2c-1.4,0.1-2.7,0.3-3.8,0.5c-1.1,0.2-2,0.5-2.9,0.8c-0.8,0.3-1.5,0.7-2,1c-0.5,0.4-1,0.9-1.4,1.5
			c-0.4,0.6-0.8,1.3-1.1,2.2c-0.3,0.9-0.6,1.9-0.9,3c-0.2,1.1-0.4,2.4-0.6,3.8l-4.4,45.7c-0.1,1.3-0.2,2.6-0.2,3.7
			c0,1.1,0.1,2.1,0.3,2.9c0.2,0.8,0.4,1.5,0.7,2c0.3,0.6,0.6,1,1,1.4c0.4,0.4,0.9,0.7,1.6,1c0.7,0.3,1.6,0.5,2.6,0.7
			c1.1,0.2,2.3,0.4,3.7,0.5c1.4,0.1,2.9,0.2,4.6,0.2c1.8,0,3.4-0.1,4.9-0.2c1.5-0.1,2.8-0.3,3.9-0.5c1.1-0.2,2.1-0.5,2.9-0.8
			c0.8-0.3,1.5-0.6,2-1c0.5-0.4,1-0.9,1.4-1.5c0.4-0.6,0.8-1.3,1.1-2.1c0.3-0.9,0.6-1.9,0.9-3c0.2-1.1,0.4-2.3,0.6-3.7l1.5-16.2H233
			l-1.6,16.6c0,0.4-0.1,0.8-0.1,1.1c-0.1,0.4-0.1,0.7-0.2,1c-0.1,0.3-0.2,0.6-0.3,0.9c-0.1,0.3-0.3,0.5-0.4,0.7l0,0
			c-0.2,0.2-0.3,0.4-0.5,0.5c-0.2,0.1-0.4,0.3-0.7,0.4c-0.2,0.1-0.5,0.2-0.7,0.2c-0.3,0-0.5,0.1-0.8,0.1c-0.3,0-0.6,0-0.9-0.1
			c-0.3-0.1-0.5-0.1-0.8-0.3c-0.3-0.1-0.5-0.3-0.7-0.5c-0.2-0.2-0.4-0.4-0.5-0.7c-0.1-0.2-0.2-0.5-0.3-0.8c-0.1-0.3-0.1-0.6-0.1-0.9
			c0-0.3,0-0.6,0-0.9c0-0.3,0-0.7,0.1-1.1l4.4-46c0-0.4,0.1-0.8,0.1-1.1c0.1-0.3,0.1-0.7,0.2-0.9c0.1-0.3,0.2-0.6,0.3-0.9
			c0.1-0.3,0.2-0.5,0.4-0.7v0c0.2-0.2,0.4-0.4,0.6-0.5c0.2-0.2,0.4-0.3,0.7-0.4c0.2-0.1,0.5-0.2,0.8-0.2c0.3,0,0.5-0.1,0.8-0.1
			c0.3,0,0.6,0,0.8,0.1c0.3,0.1,0.5,0.1,0.8,0.2c0.3,0.1,0.5,0.3,0.7,0.5c0.2,0.2,0.4,0.4,0.5,0.7v0c0.1,0.2,0.2,0.5,0.3,0.8
			c0.1,0.3,0.1,0.6,0.2,0.9c0,0.3,0,0.6,0,0.9c0,0.3,0,0.7-0.1,1.1l-1.4,14.8H246.8z"/>
		<path class="st0" d="M205.2,133.1l5.5-57.8c0.1-1.3,0.2-2.6,0.2-3.7c0-1.1-0.1-2.1-0.3-3c-0.2-0.8-0.4-1.5-0.7-2.1
			c-0.3-0.6-0.6-1-1-1.4c-0.4-0.4-1-0.7-1.7-1c-0.7-0.3-1.6-0.6-2.6-0.8c-1.1-0.2-2.3-0.4-3.7-0.5c-1.4-0.1-3-0.2-4.7-0.2
			c-1.7,0-3.3,0.1-4.7,0.2c-1.4,0.1-2.7,0.3-3.8,0.5c-1.1,0.2-2,0.5-2.9,0.8c-0.8,0.3-1.5,0.7-2,1.1c-0.5,0.4-1,0.9-1.4,1.5
			c-0.4,0.6-0.8,1.4-1.1,2.2c-0.3,0.9-0.6,1.9-0.9,3c-0.2,1.1-0.4,2.4-0.6,3.8l-0.9,9.6h12.3l1-10.2c0-0.4,0.1-0.7,0.1-1
			c0.1-0.3,0.1-0.6,0.2-0.9c0.1-0.3,0.2-0.6,0.3-0.8c0.1-0.3,0.2-0.5,0.4-0.7c0.2-0.2,0.3-0.4,0.6-0.6c0.2-0.2,0.4-0.3,0.7-0.4
			c0.2-0.1,0.5-0.2,0.8-0.3c0.3-0.1,0.5-0.1,0.8-0.1c0.3,0,0.6,0,0.8,0.1c0.3,0.1,0.5,0.1,0.8,0.3c0.3,0.1,0.5,0.3,0.7,0.5
			c0.2,0.2,0.4,0.4,0.5,0.7v0c0.1,0.2,0.2,0.5,0.3,0.8c0.1,0.3,0.1,0.6,0.2,0.9c0,0.3,0,0.6,0,0.9c0,0.3,0,0.7-0.1,1.1l-1.4,14.4
			l-13.5,6.6c-0.7,0.3-1.3,0.7-1.8,1c-0.6,0.3-1.1,0.7-1.5,1c-0.5,0.3-0.9,0.7-1.2,1c-0.4,0.3-0.7,0.7-0.9,1
			c-0.3,0.3-0.5,0.7-0.7,1.1c-0.2,0.4-0.4,0.9-0.6,1.3c-0.2,0.5-0.3,1-0.4,1.6c-0.1,0.6-0.2,1.2-0.3,1.9l-1.2,12.4
			c-0.1,1.6-0.2,3-0.3,4.3c0,1.3,0,2.5,0.1,3.5c0.1,1,0.2,1.8,0.4,2.6c0.2,0.7,0.4,1.3,0.7,1.7c0.3,0.4,0.6,0.8,1,1.1
			c0.4,0.3,0.8,0.6,1.4,0.8c0.6,0.2,1.2,0.4,1.9,0.5c0.7,0.1,1.5,0.2,2.4,0.2c0.4,0,0.8,0,1.2,0c0.4,0,0.8-0.1,1.1-0.1
			c0.4-0.1,0.8-0.1,1.1-0.2c0.4-0.1,0.7-0.2,1.1-0.3c0.4-0.1,0.7-0.3,1.1-0.4c0.4-0.2,0.7-0.3,1-0.5c0.3-0.2,0.7-0.4,1-0.6
			c0.3-0.2,0.6-0.5,1-0.7l2.4-2l-0.4,4.6H205.2L205.2,133.1z M191.4,101.3l4.7-2.5l-2.2,22.6c0,0.4-0.1,0.8-0.1,1.1
			c-0.1,0.3-0.1,0.7-0.2,0.9c-0.1,0.3-0.2,0.6-0.3,0.9c-0.1,0.3-0.2,0.5-0.4,0.7c-0.2,0.2-0.3,0.4-0.5,0.6c-0.2,0.2-0.4,0.3-0.7,0.4
			c-0.2,0.1-0.5,0.2-0.7,0.2c-0.3,0-0.5,0.1-0.8,0.1c-0.3,0-0.6,0-0.9-0.1c-0.3-0.1-0.5-0.1-0.8-0.3c-0.3-0.1-0.5-0.3-0.7-0.5
			c-0.2-0.2-0.4-0.4-0.5-0.7c-0.1-0.2-0.2-0.5-0.3-0.8c-0.1-0.3-0.1-0.6-0.2-0.9c0-0.3,0-0.6,0-0.9c0-0.3,0-0.7,0.1-1l1.4-15.1
			c0-0.3,0.1-0.5,0.1-0.8c0.1-0.2,0.1-0.5,0.2-0.7c0.1-0.2,0.2-0.5,0.3-0.7c0.1-0.2,0.2-0.4,0.4-0.6c0.1-0.2,0.3-0.4,0.4-0.6
			c0.2-0.2,0.3-0.3,0.5-0.5c0.2-0.2,0.4-0.3,0.6-0.4C190.9,101.5,191.2,101.4,191.4,101.3z"/>
		<path class="st0" d="M158.1,64.8c-0.4,0.2-0.7,0.5-1.1,0.8c-0.3,0.3-0.7,0.6-1,0.9l-1,1l-0.9-1.2c-0.2-0.3-0.5-0.6-0.7-0.8
			c-0.2-0.3-0.5-0.5-0.8-0.7c-0.3-0.2-0.6-0.4-0.9-0.6c-0.3-0.2-0.6-0.4-0.9-0.5c-0.3-0.2-0.7-0.3-1-0.4c-0.3-0.1-0.6-0.2-1-0.3
			c-0.3-0.1-0.6-0.1-1-0.2c-0.3,0-0.7-0.1-1-0.1c-0.5,0-0.9,0-1.3,0.1c-0.4,0-0.8,0.1-1.2,0.2c-0.4,0.1-0.8,0.2-1.1,0.3
			c-0.4,0.1-0.7,0.2-1.1,0.4c-0.4,0.1-0.7,0.3-1.1,0.5c-0.4,0.2-0.7,0.4-1,0.6c-0.3,0.2-0.7,0.5-1,0.8c-0.3,0.3-0.7,0.6-1,0.9
			l-2.5,2.4l0.5-5.5h-11.9l-6.7,69.9h11.9l5.5-57.6c0-0.4,0.1-0.7,0.1-1c0.1-0.3,0.1-0.6,0.2-0.9c0.1-0.3,0.2-0.6,0.3-0.8
			c0.1-0.3,0.3-0.5,0.4-0.7c0.2-0.2,0.4-0.4,0.6-0.5c0.2-0.1,0.4-0.3,0.7-0.4c0.2-0.1,0.5-0.2,0.7-0.2c0.3,0,0.5-0.1,0.8-0.1
			s0.6,0,0.8,0.1c0.3,0,0.5,0.1,0.7,0.2c0.3,0.1,0.5,0.3,0.7,0.4c0.2,0.2,0.4,0.4,0.6,0.6c0.1,0.2,0.3,0.5,0.3,0.7
			c0.1,0.3,0.1,0.6,0.2,0.9c0,0.3,0,0.6,0,0.9c0,0.3,0,0.7-0.1,1l-5.5,57.3h11.9l5.5-57.6c0-0.4,0.1-0.7,0.1-1
			c0.1-0.3,0.1-0.6,0.2-0.9c0.1-0.3,0.2-0.6,0.3-0.8c0.1-0.2,0.3-0.5,0.4-0.7c0.2-0.2,0.4-0.4,0.6-0.5c0.2-0.2,0.5-0.3,0.7-0.4
			c0.2-0.1,0.5-0.2,0.8-0.2c0.3,0,0.5-0.1,0.8-0.1c0.3,0,0.6,0,0.8,0.1c0.3,0.1,0.5,0.1,0.8,0.2c0.3,0.1,0.5,0.3,0.7,0.5
			c0.2,0.2,0.4,0.4,0.6,0.7c0.1,0.2,0.2,0.5,0.3,0.7c0.1,0.3,0.1,0.6,0.2,0.9c0,0.3,0,0.6,0,0.9c0,0.3,0,0.7-0.1,1l-5.5,57.3h11.9
			l5.3-55.8c0.1-1.5,0.2-2.8,0.2-4c0-1.2,0-2.3-0.1-3.3c-0.1-1-0.2-1.8-0.5-2.5c-0.2-0.7-0.5-1.3-0.8-1.8c-0.3-0.5-0.6-0.9-1-1.2
			c-0.4-0.4-0.9-0.7-1.4-0.9c-0.6-0.3-1.2-0.4-1.9-0.6c-0.7-0.1-1.5-0.2-2.4-0.2c-0.4,0-0.9,0-1.3,0.1c-0.4,0-0.8,0.1-1.2,0.2
			c-0.4,0.1-0.8,0.2-1.2,0.3c-0.4,0.1-0.8,0.3-1.2,0.4c-0.4,0.2-0.8,0.3-1.2,0.5C158.8,64.4,158.4,64.6,158.1,64.8z"/>
		<path class="st0" d="M116,90l1.1-11.9c0.2-1.6,0.2-3.1,0.3-4.4c0-1.3,0-2.5-0.1-3.6c-0.1-1-0.2-1.9-0.4-2.7
			c-0.2-0.7-0.4-1.4-0.7-1.9c-0.3-0.5-0.6-0.9-1-1.2c-0.4-0.4-0.9-0.6-1.4-0.9c-0.6-0.2-1.2-0.4-1.9-0.6c-0.7-0.1-1.5-0.2-2.4-0.2
			c-0.3,0-0.6,0-0.9,0.1c-0.3,0-0.6,0.1-0.9,0.2c-0.3,0.1-0.7,0.2-1,0.3c-0.3,0.1-0.7,0.2-1,0.4c-0.4,0.2-0.7,0.3-1,0.5
			c-0.3,0.2-0.7,0.4-1,0.6c-0.3,0.2-0.6,0.4-1,0.6c-0.3,0.2-0.6,0.5-0.9,0.7l-2.5,2.1l0.5-4.8H87.5l-6.7,69.8H93l5.5-57.6
			c0-0.4,0.1-0.7,0.1-1c0.1-0.3,0.1-0.6,0.2-0.9c0.1-0.3,0.2-0.6,0.3-0.8c0.1-0.3,0.3-0.5,0.4-0.7c0.2-0.2,0.4-0.4,0.6-0.5
			c0.2-0.1,0.4-0.3,0.7-0.4c0.2-0.1,0.5-0.2,0.7-0.2c0.3,0,0.5-0.1,0.8-0.1c0.3,0,0.6,0,0.8,0.1c0.3,0.1,0.5,0.1,0.8,0.2
			c0.3,0.1,0.5,0.3,0.7,0.5c0.2,0.2,0.4,0.4,0.6,0.7c0.1,0.2,0.2,0.5,0.3,0.7c0.1,0.3,0.1,0.6,0.2,0.9c0,0.3,0,0.6,0,0.9
			c0,0.3,0,0.7-0.1,1L104.4,90H116z"/>
		<path class="st0" d="M75.3,133.1l5.5-57.8c0.1-1.3,0.2-2.6,0.2-3.7c0-1.1-0.1-2.1-0.3-3c-0.2-0.8-0.4-1.5-0.7-2.1
			c-0.3-0.6-0.6-1-1-1.4c-0.4-0.4-1-0.7-1.7-1c-0.7-0.3-1.6-0.6-2.6-0.8c-1.1-0.2-2.3-0.4-3.7-0.5c-1.4-0.1-3-0.2-4.7-0.2
			c-1.7,0-3.3,0.1-4.7,0.2c-1.4,0.1-2.7,0.3-3.8,0.5c-1.1,0.2-2,0.5-2.8,0.8c-0.8,0.3-1.5,0.7-2,1.1c-0.5,0.4-1,0.9-1.4,1.5
			c-0.4,0.6-0.8,1.4-1.1,2.2c-0.3,0.9-0.6,1.9-0.9,3c-0.2,1.1-0.4,2.4-0.6,3.8L48,85.2h12.3l1-10.2c0-0.4,0.1-0.7,0.1-1
			c0.1-0.3,0.1-0.6,0.2-0.9c0.1-0.3,0.2-0.6,0.3-0.8c0.1-0.3,0.2-0.5,0.4-0.7c0.2-0.2,0.3-0.4,0.6-0.6c0.2-0.2,0.4-0.3,0.7-0.4
			c0.2-0.1,0.5-0.2,0.8-0.3c0.3-0.1,0.6-0.1,0.8-0.1c0.3,0,0.6,0,0.8,0.1c0.3,0.1,0.5,0.1,0.8,0.3c0.3,0.1,0.5,0.3,0.7,0.5
			c0.2,0.2,0.4,0.4,0.5,0.7c0.1,0.2,0.2,0.5,0.3,0.8c0.1,0.3,0.1,0.6,0.2,0.9c0,0.3,0,0.6,0,0.9c0,0.3,0,0.7-0.1,1.1L67,89.8
			l-13.5,6.6c-0.7,0.3-1.3,0.7-1.8,1c-0.6,0.3-1.1,0.7-1.5,1c-0.5,0.3-0.9,0.7-1.2,1c-0.4,0.3-0.7,0.7-0.9,1
			c-0.3,0.3-0.5,0.7-0.7,1.1c-0.2,0.4-0.4,0.9-0.6,1.3c-0.2,0.5-0.3,1-0.4,1.6c-0.1,0.6-0.2,1.2-0.3,1.8l-1.2,12.4
			c-0.2,1.6-0.2,3-0.3,4.3c0,1.3,0,2.5,0.1,3.5c0.1,1,0.2,1.8,0.4,2.6c0.2,0.7,0.4,1.3,0.7,1.7c0.3,0.4,0.6,0.8,1,1.1
			c0.4,0.3,0.8,0.6,1.4,0.8c0.6,0.2,1.2,0.4,1.9,0.5c0.7,0.1,1.5,0.2,2.4,0.2c0.4,0,0.8,0,1.1,0c0.4,0,0.8-0.1,1.1-0.1
			c0.4-0.1,0.8-0.1,1.1-0.2c0.4-0.1,0.7-0.2,1.1-0.3c0.4-0.1,0.7-0.3,1.1-0.4c0.4-0.2,0.7-0.3,1-0.5c0.3-0.2,0.7-0.4,1-0.6
			c0.3-0.2,0.6-0.5,1-0.7l2.4-2l-0.4,4.6H75.3L75.3,133.1z M61.5,101.3l4.7-2.5L64,121.4c0,0.4-0.1,0.8-0.1,1.1
			c-0.1,0.3-0.1,0.7-0.2,0.9c-0.1,0.3-0.2,0.6-0.3,0.9c-0.1,0.3-0.2,0.5-0.4,0.7c-0.2,0.2-0.3,0.4-0.5,0.6c-0.2,0.2-0.4,0.3-0.7,0.4
			c-0.2,0.1-0.5,0.2-0.7,0.2c-0.3,0-0.5,0.1-0.8,0.1c-0.3,0-0.6,0-0.9-0.1c-0.3-0.1-0.5-0.1-0.8-0.3c-0.3-0.1-0.5-0.3-0.7-0.5
			c-0.2-0.2-0.4-0.4-0.5-0.7l0,0c-0.1-0.2-0.2-0.5-0.3-0.8c-0.1-0.3-0.1-0.6-0.2-0.9c0-0.3,0-0.6,0-0.9c0-0.3,0-0.7,0.1-1l1.4-15.1
			c0-0.3,0.1-0.5,0.1-0.8c0.1-0.2,0.1-0.5,0.2-0.7v0c0.1-0.2,0.2-0.5,0.3-0.7c0.1-0.2,0.2-0.4,0.4-0.6l0,0c0.1-0.2,0.3-0.4,0.4-0.5
			c0.2-0.2,0.3-0.3,0.5-0.5c0.2-0.2,0.4-0.3,0.6-0.4C61.1,101.5,61.3,101.4,61.5,101.3z"/>
	</g>
	<g>
		<rect x="738.7" y="8" class="st1" width="113.4" height="148.4"/>
		<path class="st2" d="M824.2,88.4L824.2,88.4c0.9-1.4,1.8-2.8,2.7-4.1c0.7-1.2,1.5-2.3,2.2-3.5c0.5-0.8,1-1.6,1.4-2.4l0.1-0.2
			c0.6,0,1.1,0,1.6,0c0.7,0,1.3-0.1,2-0.3c0.7-0.2,1.4-0.5,2-0.9c5.1-2.6,7.6-8.9,7-15l0.1-0.1c1.3-1.4,1-6.4,1.1-8.3l0,0l0,0
			c2.6-13.2,3.3-38.7-11.6-45.6h-83.5c-1.9,3.2-2.6,7-1.3,11l0.3,1.1l-0.8,0.8c-3.5,3.4-1.9,12.6-1,16.9c0.2,0.8,0.4,1.6,0.6,2.4
			l0.2,0.8l-0.4,0.7c-1.4,2.1-2.3,4.6-2.6,7.1l0,0.1l0,0l0,0c0,0.1,0,0.2,0,0.4l-0.1,1.3l0.2,2.6l0.3,1.3c0.6,2.3,1.6,4.5,3.2,6.4
			l0.4,0.5l0,0.6c0.2,11.1,3.1,22.1,10.5,30.7l0.3,0.3l1.2,1.1c-2.5,0.5-5,1.2-7.4,2c-2.4,0.8-6,2.1-7.9,3.6c-1.9,1.6-4,3.1-6,4.5
			v39.3c2-0.9,3.9-2,5.5-3l0,0c1.3-0.8,3.2-1.9,4.3-2.7c0.1,0.9,0,1.1,0.1,2.1c0,1,0.1,2.1,0.1,3.1c0,4.5,0.2,9.1,0.3,13.6h103v-47
			c-2-3.2-4.9-5.6-8.2-7.6c-3.4-2-7-3.3-10.6-4.7c-0.9-0.4-4.6-1.7-5.4-2.4L824.2,88.4L824.2,88.4z M839.4,146.7l-1.7,1.7
			c-0.2-2.4-0.3-2.7-0.5-6.2L839.4,146.7z"/>
		<path class="st3" d="M738.7,140.7c3.3-1.9,9-5.4,11.2-6.8c-0.1-5.3,0.8-10.8,2.3-14.6c0.1-0.3-1.6,7.8-1,23.4
			c0,2.3,0.1,7.5,0.4,13.7h100.5V152v-13.7v-4.5v-19.3c-0.7-1.2-1.3-2.3-1.8-3.2c-5.4-10-21.7-11.7-24.5-15.1l-4.2-7.2
			c-7.3,8.5-19.8,17.8-39.2,15.9c-0.2,0-10.1-1.3-19.1-9.1c-8.1,1.4-15,4-17,5.6c-2.7,2.2-5.2,4-7.6,5.6V140.7L738.7,140.7z
			 M837.2,142.1c0.4,0.6,1.8,3.6,2.2,4.6c-0.4,0.4-1.3,1.3-1.7,1.7C837.6,148,837.1,144.4,837.2,142.1z"/>
		<path class="st4" d="M751.2,40c0,0-4.2-16.1,4-17.1c0,0,3.9-0.5,10.7,2.5c6.8,3,31.8,5.3,48.1,1.7c0,0,7.6-0.8,4.1,7
			c0,0-5.8,19,9.4,34.9c0,0,3-12.9,11.4-8l0.1,0c0.7,0.7,1.7,2.2,1.9,4.8c0.2,2.1-0.4,4.6-2.4,7.3c-1.2,1.6-3.2,3.3-5.3,3.5
			c-1.3,0.1-2.6-0.5-3.7-1.7l-1.2-1.3l-0.7,1.7c-0.1,0.3-12.7,31-45,27.8c-1.3-0.2-32.6-6.6-31.9-42.3h0.8c-2.7-2.3-4.4-5.6-4.7-9.3
			c-0.4-4.5,1.6-8.7,4.9-11.5H751.2z"/>
		<path class="st5" d="M737.8,6.1H854v152.1H736.9V6.1H737.8L737.8,6.1z M852.1,8H738.7v148.4h113.4V8z"/>
		<path class="st2" d="M762.3,73c5,16,15,16.7,15.4,16.7l-0.1,0c13.8,2.2,21.7-14.2,22.1-14.9l0.9-1.9l-2,0.8
			c-24.7,10-36-1.3-36.6-2.1L762.3,73z"/>
		<path class="st3" d="M777.7,88.4c-0.4,0-8.4-1.1-13.2-13.2c4.3,3,15,7.1,32.9,0.4C795,79.9,787.7,90.1,777.7,88.4z"/>
		<path class="st2" d="M771.1,52.1c0.2,2.3-1.5,4.2-3.9,4.4c-2.3,0.2-4.3-1.5-4.5-3.8c-0.2-2.3,1.6-4.2,3.9-4.4
			C768.9,48.2,770.9,49.9,771.1,52.1z"/>
		<path class="st3" d="M746.7,51.5c-0.6-7.6,5.2-14.2,13-14.8c7.8-0.6,14.6,5.1,15.2,12.7c0.6,7.6-5.2,14.2-13,14.8
			C754.1,64.8,747.3,59.1,746.7,51.5L746.7,51.5z M771.1,52.1c-0.2-2.3-2.2-3.9-4.5-3.8c-2.3,0.2-4,2.1-3.9,4.4
			c0.2,2.3,2.2,3.9,4.5,3.8C769.5,56.3,771.2,54.4,771.1,52.1z"/>
		<path class="st2" d="M800.8,54.3c0.2,2.3-1.6,4.2-3.9,4.4c-2.3,0.2-4.3-1.5-4.5-3.8c-0.2-2.3,1.6-4.2,3.9-4.4
			C798.6,50.3,800.7,52,800.8,54.3z"/>
		<path class="st3" d="M781.2,53.4c-0.6-8.2,5.7-15.4,14.1-16.1c8.4-0.6,15.8,5.6,16.5,13.8c0.6,8.2-5.7,15.4-14.1,16.1
			C789.2,67.8,781.9,61.7,781.2,53.4L781.2,53.4z M800.8,54.3c-0.2-2.3-2.2-3.9-4.5-3.8c-2.3,0.2-4,2.1-3.9,4.4
			c0.2,2.3,2.2,3.9,4.5,3.8C799.3,58.5,801,56.5,800.8,54.3z"/>
		<path class="st2" d="M776.5,114.2l-0.6-3.2l0.9,0.6l0.4,1.5L776.5,114.2L776.5,114.2z M745.1,51.7c0.3,3.5,1.7,6.6,4,9.1
			c0.2,25.5,13.8,36.4,23.5,41l4.8,22.9c-8.6,11.6-11,20.5-11.3,22.2l0.1,0c9.4-22.8,25.6-37.5,36.9-44.5l0,0
			c15.9-6,23.8-20.1,26.1-24.6c1.3,1,2.5,1,4,0.9c2.5-0.2,5.9-3.5,7.8-6.1c1.5-2.2,2.1-4.4,2.3-7c-0.3-1.5-0.7-3.9-1.7-5.5l2.7,0.4
			l0.6-3.8l-31.3-2.9c0.1-0.9,0.1-1.8,0-2.7c-0.7-9.2-9-16.1-18.4-15.4c-8.6,0.6-15.3,7.4-15.8,15.7c-1.2,0.9-2.2,0.6-2.8,0.2
			c0-0.7,0-1.4,0-2.1c-0.7-8.5-8.3-14.8-16.9-14.2C750.9,35.8,744.4,43.2,745.1,51.7L745.1,51.7z M750.6,62.2
			c3.1,2.5,7.1,3.9,11.4,3.6c1.9-0.1,3.8-0.6,5.5-1.4c0.6,1.6,4.4,7.7,12,3.8c0,0-9.8,1.7-9.1-4.7c0.6-5.3,6.1-6.3,10.3-4.8
			c2.8,6.5,9.6,10.8,17.1,10.2c7.8-0.6,14-6.2,15.5-13.3l26.3,4l-0.9,1.1c0.8,0.4,2,2,2.3,5.1c0.2,2.1-0.4,4.6-2.4,7.3
			c-1.2,1.6-3.2,3.3-5.3,3.5c-1.3,0.1-2.6-0.5-3.7-1.7l-1.2-1.3l-0.7,1.7c-0.1,0.3-12.7,31-45,27.8
			C781.3,102.9,750.8,96.7,750.6,62.2L750.6,62.2z M746.7,51.5c-0.6-7.6,5.2-14.2,13-14.8c7.8-0.6,14.6,5.1,15.2,12.7
			c0.2,2.4-0.3,4.8-1.3,6.9c0,0.1-0.1,0.1-0.1,0.2l0,0.1c0,0.1-0.1,0.1-0.1,0.2v0l-0.1,0.1l-0.1,0.1l-0.1,0.1l0,0
			c0,0.1-0.1,0.1-0.1,0.2l0,0l-0.1,0.2l0,0.1c0,0.1-0.1,0.1-0.1,0.2l-0.1,0.1l0,0c0,0.1-0.1,0.1-0.1,0.2l0,0.1
			c0,0.1-0.1,0.1-0.1,0.2l0,0l-0.1,0.1l-0.1,0.1l0,0l-0.1,0.1l0,0l-0.1,0.2l-0.1,0.1l-0.1,0.2l-0.1,0.1l-0.1,0.1l0,0l-0.1,0.1l0,0
			c0,0-0.1,0.1-0.1,0.1l-0.1,0.1L771,60l-0.1,0.1l-0.1,0.1l0,0l-0.1,0.1l0,0l-0.2,0.1l-0.1,0.1l-0.1,0.1l-0.1,0.1l-0.1,0.1l-0.2,0.1
			l-0.1,0.1c-0.1,0-0.1,0.1-0.2,0.1l-0.1,0.1l-0.2,0.1l-0.1,0.1l-0.2,0.1l-0.1,0.1l-0.1,0.1l-0.1,0.1l-0.2,0.1l-0.1,0.1
			c-0.1,0-0.1,0.1-0.2,0.1l-0.1,0.1l-0.2,0.1l-0.2,0.1l-0.1,0.1l-0.1,0.1l-0.2,0.1l-0.1,0c-1.6,0.8-3.4,1.3-5.3,1.5
			C754.1,64.8,747.3,59.1,746.7,51.5L746.7,51.5z M784.1,105c5,0.3,9.5-0.1,13.5-1c-3.3,2.6-6.3,5.2-8.9,7.8l-3.3,0.6L784.1,105
			L784.1,105z M774.2,102.4c2.6,1.1,4.8,1.7,6.3,2l-3.8,6l-1.1-0.8L774.2,102.4L774.2,102.4z M777.6,111.4l0.7-1.2l2.8-4.8
			c0.4-0.3,1.6-0.1,2,0.3l0.9,6.2l0.1,1l-1.2,1c-1.2,0.1-4-0.3-5-1L777.6,111.4L777.6,111.4z M783.7,114.5l1.3-1.2l2.7-0.6
			c-1.2,1.2-2.3,2.3-3.3,3.4L783.7,114.5L783.7,114.5z M776.9,115.2l1.5,7.6l5-6l-0.6-2.1c-1.8,0-3.6-0.3-5-1L776.9,115.2
			L776.9,115.2z M781.2,53.4c-0.6-8.2,5.7-15.4,14.1-16.1c8.4-0.6,15.8,5.6,16.5,13.8c0.6,8.2-5.7,15.4-14.1,16.1
			C789.2,67.8,781.9,61.7,781.2,53.4z"/>
		<path class="st2" d="M800.4,32.6c1.2-0.5,6-2.8,9,3C806.5,36.4,806.6,32.8,800.4,32.6z"/>
		<path class="st2" d="M761.4,31.2c-1-0.6-5.3-3.2-8.5,2.5C755.5,34.7,755.7,31.1,761.4,31.2z"/>
		<path class="st2" d="M833.5,63.7c0,0,5.3,3.2,2.6,7.6C836,71.3,841.3,66.1,833.5,63.7z"/>
		<path class="st2" d="M817.6,101.1c0,0.1-0.1,0.2-0.1,0.2c-6.4,6.5-11.8,13.4-16.1,20.4l-6.5-1l0.9,5c0,0-14.5,1.9-23.5,14.9
			c0,0,4-10.9,21.6-16.1l-0.7-4.9l7.5,0.7C804.9,113.7,810.3,107.2,817.6,101.1z"/>
		<path class="st2" d="M771.8,130.3l-5.6-9.6l3.7-3.3l-4.5-1.9c0.9-4.1,1.7-9.2,2.2-13.7c-0.1,0.2-0.1,0.3-0.2,0.5
			c-0.8,4.1-1.7,9.1-3.1,13.8l3.9,1.4l-3.4,3.3L771.8,130.3z"/>
		<path class="st2" d="M764.7,150.3L764.7,150.3L764.7,150.3L764.7,150.3L764.7,150.3L764.7,150.3L764.7,150.3l0,0.1l0,0l0,0v0v0
			l0,0l0,0l0,0l0,0l0,0v0l0,0l0,0l0,0l0,0l0,0l0,0l0,0l0,0l0,0l0,0l0,0l0,0l0,0l0,0l0,0l0,0l0,0l0,0l0,0v0l0,0l0,0l0,0l0,0l0,0l0,0
			l0,0l0,0l0,0l0,0l0,0l0,0l0,0l0,0l0,0l0,0l0,0l0,0l0,0v0l0,0l0,0l0,0l0,0l0,0l0,0l0,0l0,0l0,0l0,0l0,0v0l0,0l0,0l0,0v0l0,0v0l0,0
			v0l0,0l0,0l0,0l0,0l0,0l0,0l0,0l0,0l0,0l0,0l0,0l0,0l0,0l0,0l0,0l0,0l0,0l0,0l0,0l0,0l0,0v0l0,0l0,0l0,0l0,0l0,0v0l0,0l0,0l0,0
			l0,0l0,0l0,0l0,0l0,0l0,0l0,0l0,0l0,0l0,0l0,0l0,0l0,0l0,0l0,0l0,0l0,0l0,0l0,0l0,0l0,0l0,0l0,0l0,0v0l0,0l0,0l0,0l0,0l0,0l0,0
			l0,0l0,0l0,0v0l0,0l0,0c0,0,0.1,0.1,0.1,0.1l0,0l0,0l0,0c0,0,0.1,0,0.1,0.1l0,0l0,0l0,0l0,0l0,0l0,0l0,0l0.1,0l0,0l0,0l0,0l0,0
			l0,0l0,0l0,0l0,0l0,0l0,0l0,0l0,0l0,0l0,0l0,0c0,0,0.1,0,0.1,0l0,0l0,0l0,0l0,0l0,0c0.1,0,0.1,0,0.2,0l0,0h0l0,0l0,0l0,0h0l0,0
			l0,0l0,0h0l0,0h0l0,0l0,0l0,0l0,0l0,0l0,0l0,0h0v0l0,0l0,0l0,0l0,0l0,0v0l0,0l0,0l0,0l0,0l0,0l0,0l0,0l0,0l0,0l0,0l0,0v0l0,0l0,0
			l0,0l0,0l0,0l0,0l0,0l0,0l0,0l0,0l0,0l0,0l0,0l0,0l0,0l0,0l0,0l0,0l0,0l0,0l0,0l0,0l0,0v0l0,0l0,0l0,0l0,0l0,0l0,0l0,0v0l0,0l0,0
			l0,0l0,0l0,0v0l0.1,0l0,0l0.1,0l0,0l0,0l0,0l0,0l0,0l0,0l0,0c0,0,0.1-0.1,0.1-0.1l0,0l0,0l0,0l0,0l0,0l0,0l0,0
			c0,0,0.1-0.1,0.1-0.1c0-0.1,0.1-0.1,0.1-0.2l0,0l0,0v0l0-0.1l0,0l0,0l0,0l0,0l0,0l0,0l0,0l0,0l0,0c0,0,0-0.1,0.1-0.1l0,0l0,0v0
			l0-0.1l0,0l0,0l0,0l0,0l0,0l0,0v0l0,0l0,0l0,0l0,0l0,0l0,0l0-0.1l0,0l0,0l0,0l0-0.1l0,0l0-0.1l0,0l0-0.1l0,0l0-0.1l0,0l0-0.1l0,0
			l0,0l0,0l0-0.1l0,0l0,0l0,0v0l0,0l0,0l0,0l0,0l0,0l0,0l0,0l0-0.1l0,0v0v0l0,0l0,0v0l0,0v-0.1l0,0l0,0l0,0v0l0,0v0l0,0l0,0l0,0v0
			l0,0l0,0l0,0v0l0,0v0l0,0v0v0l0,0l0,0v0l0,0l0,0v0v0l0,0l0,0l0,0v0l0,0l0,0l0,0v0l0,0l0,0l0,0l0,0l0,0l0,0v0l0,0l0,0l0,0l0,0l0,0
			l0,0l0,0l0,0l0,0l0,0l0,0l0,0l0,0l0,0l0,0l0,0l0,0l0,0l0,0l0,0l0,0l0,0l0,0l0,0l0,0l0,0l0,0l0,0l0,0l0,0l0,0l0,0l0-0.1l0,0l0,0
			l0-0.1l0,0l0,0l0,0l0,0l0,0l0,0l0-0.1v0l0,0l0,0l0,0l0,0l0,0l0,0l0,0l0,0l0,0l0,0l0,0l0,0l0,0l0,0l0,0l0,0l0,0l0,0l0,0l0,0h0l0,0
			l0,0l0,0l0,0l0,0l0,0l0,0l0,0l0,0l0,0l0,0l0,0l0,0l0,0l0,0l0,0l0,0l0,0l0,0l0,0l0,0l0,0l0,0l0,0l0,0l0,0l0,0l0,0h0l0,0l0,0l0,0
			l0,0l0,0l0,0l0,0l0,0l0,0l0,0l0,0l0,0l0,0l0,0l0,0l0,0l0,0l0,0l0,0l0,0l0,0l0,0l0,0l0,0l0,0l0,0l0,0l0,0l0,0l0,0l0,0l0,0l0,0l0,0
			l0,0l0,0l0,0l0,0l0,0l0,0l0,0l0,0l0,0l0,0l0,0h0l0,0l0,0l0,0c0,0-0.1,0-0.1,0v0c0,0-0.1,0-0.1,0l0,0c0,0-0.1,0-0.1,0l0,0
			c0,0-0.1,0-0.1,0h0l0,0l0,0h0l0,0h0l0,0l0,0l0,0h0l0,0l0,0l0,0h0l0,0l0,0l0,0l0,0l0,0h0l0,0l0,0l0,0l0,0l0,0l0,0l0,0l0,0l0,0l0,0
			l0,0l0,0l0,0l0,0l0,0l0,0l0,0l0,0v0l0,0l0,0l0,0l0,0l0,0l0,0l0,0l0,0l0,0l0,0l0,0l0,0l0,0l0,0l0,0l0,0l0,0l0,0l0,0l0,0l0,0l0,0
			l0,0l0,0l0,0l0,0l0,0l0,0l0,0l0,0l0,0l0,0l0,0l0,0l0,0l0,0l0,0l0,0l0,0l0,0l0,0l0,0l0,0l0,0l0,0h0l0,0l0,0l0,0l0,0l0,0l0,0l0,0v0
			l0,0l0,0l0,0l0,0l0,0l0,0l0,0l0,0l0,0l0,0l0,0l0,0l0,0l0,0l0,0l0,0l0,0l0,0l0,0v0l0,0l0,0v0c0,0-0.1,0.1-0.1,0.1l0,0l0,0l-0.1,0.1
			v0c0,0,0,0.1-0.1,0.1l0,0l0,0l0,0l0,0v0l0,0l0,0v0l0,0l0,0l0,0l0,0l0,0l0,0l0,0l0,0l0,0v0l0,0l0,0l0,0l0,0l0,0l0,0l0,0v0l0,0l0,0
			l0,0l0,0l0,0l0,0l0,0l0,0l0,0l0,0l0,0l0,0l0,0l0,0l0,0l0,0l0,0v0l0,0l0,0l0,0l0,0l0,0l0,0l0,0l0,0l0,0l0,0l0,0l0,0l0,0l0,0l0,0
			l0,0l0,0v0l0,0l0,0l0,0l0,0l0,0l0,0l0,0l0,0l0,0l0,0l0,0l0,0l0,0v0l0,0l0,0l0,0l0,0l0,0l0,0l0,0l0,0l0,0l0,0v0v0l0,0l0,0l0,0l0,0
			v0l0,0l0,0v0v0v0l0,0v0L764.7,150.3L764.7,150.3L764.7,150.3L764.7,150.3L764.7,150.3L764.7,150.3L764.7,150.3L764.7,150.3
			L764.7,150.3L764.7,150.3z M763.4,150.3L763.4,150.3L763.4,150.3c0-0.9,0.3-1.8,0.8-2.4c0.5-0.7,1.3-1.1,2.1-1.1l0,0h0
			c0.8,0,1.6,0.4,2.1,1.1c0.5,0.6,0.8,1.5,0.8,2.4l0,0v0c0,0.9-0.3,1.8-0.8,2.4c-0.5,0.7-1.3,1.1-2.1,1.1l0,0l0,0
			c-0.8,0-1.6-0.4-2.1-1.1C763.7,152,763.4,151.2,763.4,150.3z"/>
		<path class="st2" d="M765.4,153.6c0,0.9,0,1.8,0,2.8h-0.6c0-1.1-0.1-2.2-0.1-3.2C764.9,153.4,765.1,153.5,765.4,153.6z"/>
		<polygon class="st6" points="852.1,118.2 852.1,118.3 852.1,134.3 845.5,137.7 838.6,124.2 		"/>
		<path class="st3" d="M844.3,131.5c-0.5-0.9-1-1.9-1.5-2.8l3.9-1.8l-1.9-3.7c0.9-0.4,1.9-0.7,2.8-1.1l1.8,3.6l2.8-1.3v3.2l-1.5,0.7
			l1.5,3v0.6c-0.7,0.4-1.5,0.9-2.2,1.3l-1.8-3.5L844.3,131.5z"/>
		<path class="st2" d="M814.6,135.4c-6.5,0.2-12.9,0.4-22.4,0.7l-0.8,2.7l1.8-1.8c2.3-0.1,17.8-0.7,20.4-0.8l1,1.8L814.6,135.4z"/>
		<path class="st7" d="M776.9,115.2l1.5,7.6l5-6l-0.6-2.1c-1.8,0-3.6-0.3-5-1L776.9,115.2z"/>
		<path class="st7" d="M777.6,111.4l0.7-1.2l2.8-4.8c0.4-0.3,1.6-0.1,2,0.3l0.9,6.2l0.1,1l-1.2,1c-1.2,0.1-4-0.3-5-1L777.6,111.4z"
			/>
		<path class="st2" d="M839.4,146.7c-0.4-1-1.4-2.9-2.2-4.6c0.1,2.1,0.2,4.1,0.5,6.2L839.4,146.7L839.4,146.7z M836,139.6
			c-0.2-0.5-0.1-0.3-0.3-0.6c-1.4-3.3-9.6-17.7-9.3-17.7c5.8,8.5,13.9,22.5,14.9,25.8c-1.2,1.2-3.1,3.2-4.7,4.7
			c-2.1,1.9-2.9,2.1-6.3,4.7h-2.2l8-6.8C835.9,147.3,835.9,143,836,139.6z"/>
	</g>
</g>
</svg>
