<svg id="Capa_1" data-name="Capa 1" xmlns="http://www.w3.org/2000/svg" viewBox="0 0 78.16 36.02"><defs><style>.cls-1{fill:#efa717;}.cls-1,.cls-2,.cls-3{fill-rule:evenodd;}.cls-2{fill:#fff;}.cls-3{fill:#e30613;}</style></defs><title>oxxo</title><path class="cls-1" d="M2.5,4.29A2.44,2.44,0,0,1,4.94,1.85H78.23a2.44,2.44,0,0,1,2.43,2.43V35.44a2.44,2.44,0,0,1-2.43,2.43H4.94A2.44,2.44,0,0,1,2.5,35.44V4.29Z" transform="translate(-2.5 -1.85)"/><polygon class="cls-2" points="0 3.54 78.16 3.54 78.16 32.49 0 32.49 0 3.54 0 3.54"/><path class="cls-3" d="M68.74,12.91a6.49,6.49,0,1,0,6.49,6.49,6.5,6.5,0,0,0-6.49-6.49Z" transform="translate(-2.5 -1.85)"/><path class="cls-3" d="M15.24,12.91a6.49,6.49,0,1,0,6.49,6.49,6.5,6.5,0,0,0-6.49-6.49Z" transform="translate(-2.5 -1.85)"/><path class="cls-3" d="M68.24,7.2c-6-.14-8.83,3.72-12.93,8.47l-3.87,4.48,6.12,7.33C59,29.73,56.23,32,54.5,29.91l-5.66-6.75-5.52,6.4c-1.76,2-4.51-.24-3-2.47l6-7-3.92-4.68,2.52-3.13,4,4.79,3.44-4c1.69-2,3.41-4.56,5.64-5.9H2.5V32.54h13c6,0,8.74-3.59,12.73-8.44L32,19.53l-6.29-7.19c-1.51-2.22,1.22-4.52,3-2.5l5.82,6.62,5.37-6.52c1.71-2.08,4.51.13,3.08,2.4l-5.83,7.1,4,4.59-2.54,3-4-4.53L31.23,26.6c-1.64,2-3.31,4.55-5.51,5.94H80.67V7.2ZM25.5,19.4A10.26,10.26,0,1,1,15.24,9.15,10.27,10.27,0,0,1,25.5,19.4ZM68.74,29.66A10.26,10.26,0,1,1,79,19.4,10.28,10.28,0,0,1,68.74,29.66Z" transform="translate(-2.5 -1.85)"/></svg>