<svg id="Capa_1" data-name="Capa 1" xmlns="http://www.w3.org/2000/svg" viewBox="0 0 246.15 35.18"><defs><style>.cls-1{fill:#bb1924;}</style></defs><title>scotiabank</title><path class="cls-1" d="M139.6,4.4h.48c2.3,0,4.61,0,6.91,0,.43,0,.56.1.56.55,0,3.29,0,6.58,0,9.87v.64l.56-.29a13,13,0,0,1,5-1.79,10.11,10.11,0,0,1,10.26,4.86,11.59,11.59,0,0,1,1.8,6.24,14.59,14.59,0,0,1-1.41,7.09,9.89,9.89,0,0,1-7.78,5.6A10.45,10.45,0,0,1,149,35.94c-.56-.34-1.07-.78-1.66-1.22l-.18,1.91H139.6Zm12.68,15A4.61,4.61,0,0,0,148.12,22a7.27,7.27,0,0,0-.46,5.5,4.57,4.57,0,0,0,8.66.9,7.44,7.44,0,0,0,.32-5.52A4.43,4.43,0,0,0,152.28,19.43Z" transform="translate(-4.35 -2.1)"/><path class="cls-1" d="M4.69,35.92l.74-7.43,3,1.21a13.79,13.79,0,0,0,5.93,1.14,9.18,9.18,0,0,0,2.27-.37A2.51,2.51,0,0,0,17.5,26a9.47,9.47,0,0,0-2.65-1.56c-2-.83-4-1.66-5.92-2.53A7.22,7.22,0,0,1,4.55,16.5,7.72,7.72,0,0,1,7.48,8.37a12.73,12.73,0,0,1,4.26-2.08,22.9,22.9,0,0,1,7.72-.75,23,23,0,0,1,5.89.94.49.49,0,0,1,.42.61c-.19,2.15-.36,4.31-.54,6.52-.77-.25-1.49-.5-2.21-.73a16.17,16.17,0,0,0-6-.95,8.66,8.66,0,0,0-2.42.52,1.94,1.94,0,0,0-.43,3.43,16.69,16.69,0,0,0,3.45,1.69c2,.84,4,1.62,5.83,2.62a7.4,7.4,0,0,1,4,5.9c.48,4.28-1.14,7.57-5.33,9.56a17.65,17.65,0,0,1-6.8,1.57A33.33,33.33,0,0,1,4.89,36Z" transform="translate(-4.35 -2.1)"/><path class="cls-1" d="M127,15.91v-2h8V36.63H127V34.49l-.13,0-.9.72a9.67,9.67,0,0,1-5.48,2,9.78,9.78,0,0,1-5.17-.8A10.68,10.68,0,0,1,109.63,30a14.17,14.17,0,0,1,.07-9.58,10.3,10.3,0,0,1,10.58-7.11,10.09,10.09,0,0,1,6.27,2.41l.25.2S126.84,15.89,127,15.91Zm.1,9.36a6.9,6.9,0,0,0-1-3.89,4.67,4.67,0,0,0-7.41-.37,7.45,7.45,0,0,0-.11,8.29,4.44,4.44,0,0,0,6.73.64A6,6,0,0,0,127.06,25.27Z" transform="translate(-4.35 -2.1)"/><path class="cls-1" d="M185.77,34.45c-.28.22-.57.43-.84.66a9.39,9.39,0,0,1-5.54,2.1,9.73,9.73,0,0,1-4.76-.61,10.66,10.66,0,0,1-6.25-7,13.85,13.85,0,0,1,.71-10.38,9.77,9.77,0,0,1,7.45-5.76,10.31,10.31,0,0,1,8.87,2.3,1.39,1.39,0,0,0,.35.16,1.48,1.48,0,0,0,.11-.36c0-.51,0-1,0-1.55a.66.66,0,0,1,0-.12h7.82V36.62h-7.81V34.51Zm-4.51-15.1A4.57,4.57,0,0,0,176.84,22a7.38,7.38,0,0,0,.26,7,4.27,4.27,0,0,0,4.06,2.22,4.45,4.45,0,0,0,3.73-2.27,6.75,6.75,0,0,0,.09-7.27A4,4,0,0,0,181.26,19.35Z" transform="translate(-4.35 -2.1)"/><path class="cls-1" d="M226.65,36.64V4.44h7.86V23.16l.1,0c.11-.13.22-.26.32-.39q3.14-4.29,6.27-8.59a.84.84,0,0,1,.78-.39c2.59,0,5.18,0,7.78,0h.53l-.59.78q-3.73,4.79-7.46,9.57a.51.51,0,0,0,0,.73q4,5.64,8,11.31l.28.41-.45,0c-2.67,0-5.34,0-8,0a.69.69,0,0,1-.66-.36q-3.22-4.81-6.46-9.62a1.16,1.16,0,0,0-.4-.4V36.64Z" transform="translate(-4.35 -2.1)"/><path class="cls-1" d="M63.38,13.17A15,15,0,0,1,72,15.88a10.94,10.94,0,0,1,4.71,9.79,11,11,0,0,1-3.4,8A12.89,12.89,0,0,1,66.57,37a16.5,16.5,0,0,1-8.58-.6,11,11,0,0,1-7.13-6.71,11.73,11.73,0,0,1,.88-10.57,12.2,12.2,0,0,1,8-5.43C60.91,13.4,62.16,13.33,63.38,13.17Zm-5.18,12c0,.48.06,1,.13,1.44a6.08,6.08,0,0,0,2.18,4,4.81,4.81,0,0,0,7.19-1.63,7.75,7.75,0,0,0,.15-7.11,4.45,4.45,0,0,0-3.66-2.78,4.67,4.67,0,0,0-4.6,1.73A7.1,7.1,0,0,0,58.2,25.16Z" transform="translate(-4.35 -2.1)"/><path class="cls-1" d="M221.92,36.64h-7.73c0-.2,0-.38,0-.56,0-4,0-8,0-12a3.8,3.8,0,0,0-4-4,4.16,4.16,0,0,0-4.35,4.07c-.09,2.63-.06,5.27-.07,7.91,0,1.48,0,3,0,4.49h-7.62V13.87h6.8l.18,2.57c.19-.15.34-.26.48-.38a10.43,10.43,0,0,1,5.1-2.63c4.9-.82,9.18,1.46,10.69,5.89a10.63,10.63,0,0,1,.56,3.24c.06,4.58,0,9.15,0,13.73C221.94,36.41,221.93,36.51,221.92,36.64Z" transform="translate(-4.35 -2.1)"/><path class="cls-1" d="M80.88,19.6H77.39V13.85h3.5V6.43h7.89v7.39h5c0,.19,0,.32,0,.46,0,1.62,0,3.24,0,4.87,0,.39-.13.48-.49.48-1.38,0-2.76,0-4.14,0-.34,0-.44.1-.44.44,0,2.5,0,5,0,7.5A5.18,5.18,0,0,0,89,28.8a2.78,2.78,0,0,0,2.87,2.13,25.13,25.13,0,0,0,2.54-.26L94,33.53c-.15,1-.28,1.92-.45,2.87,0,.16-.19.39-.31.41a43.44,43.44,0,0,1-4.37.44,8.12,8.12,0,0,1-5.1-1.45,6.63,6.63,0,0,1-2.54-4.31,17.39,17.39,0,0,1-.28-3c0-2.8,0-5.61,0-8.41C80.91,19.92,80.89,19.79,80.88,19.6Z" transform="translate(-4.35 -2.1)"/><path class="cls-1" d="M47.55,20.77c-.64-.25-1.24-.5-1.85-.71a5.75,5.75,0,0,0-6.32,1.35A5.38,5.38,0,0,0,38,25.9c.22,3.17,3.42,5.74,7.32,4.61.76-.22,1.49-.57,2.25-.88L48,36.27c-1.23.28-2.44.62-3.67.82A15.92,15.92,0,0,1,39.2,37a11.55,11.55,0,0,1-9.14-8.74,13.48,13.48,0,0,1,.63-8.14,11.05,11.05,0,0,1,8-6.49,17.63,17.63,0,0,1,8.4.29c.92.21.88.21.81,1.18-.13,1.72-.21,3.45-.31,5.17C47.58,20.44,47.57,20.59,47.55,20.77Z" transform="translate(-4.35 -2.1)"/><path class="cls-1" d="M97.84,36.63V13.77h7.84V36.63Z" transform="translate(-4.35 -2.1)"/><path class="cls-1" d="M106.26,6.65a4.49,4.49,0,0,1-9,0,4.49,4.49,0,1,1,9,0Z" transform="translate(-4.35 -2.1)"/></svg>