<svg xmlns="http://www.w3.org/2000/svg" viewBox="0 0 211.22 44.27"><defs><style>.cls-1{fill:#0f6db7;}.cls-1,.cls-2{fill-rule:evenodd;}.cls-2{fill:#f08213;}</style></defs><g id="Capa_2" data-name="Capa 2"><g id="Layer_1" data-name="Layer 1"><path class="cls-1" d="M23.32,19c.1-6.2-4.6-8.3-10.1-8.3-5.1,0-10.6,2.7-10.6,8.3,0,4.3,3,5.9,6.1,6.9,3.5,1.2,6,1.5,6,3.3s-1.8,2.4-3.3,2.4c-1.3,0-2.2,0-2.9-.7a3.62,3.62,0,0,1-.9-2.8H0c-.4,6.4,4.9,9.1,10.7,9.1,5.5,0,11.4-2.9,11.4-9,0-2.9-1.4-5.4-5.9-6.9-2.5-.8-6.2-1-6.2-2.8s1.6-2,2.9-2a4.13,4.13,0,0,1,2.3.5,2.6,2.6,0,0,1,.9,2.1h7.2Zm21.2-.7h-7l-1.6,7.4c-.6,2.4-.7,5.8-3.8,5.8-1.1,0-2-.6-2-1.6a11.62,11.62,0,0,1,.2-2l2.2-9.6h-7.1c-2.2,10.1-2.8,12.4-2.8,13.9,0,3.5,2.6,4.9,5.9,4.9a7,7,0,0,0,5.9-2.8h.2l-.7,2.3h6.8l3.8-18.3Zm10,13.7c-2.3,0-2.5-2.3-2.5-3,0-1.5.6-6.1,3.7-6.1,2,0,2.5,1.5,2.5,3.3-.1,2.3-1,5.8-3.7,5.8ZM42,42.6h7l1.6-8.3c1.5,2.5,3.6,2.8,5.6,2.8,6.2,0,8.9-6.3,8.9-11.7,0-3.3-1.5-7.6-6.6-7.6a5.9,5.9,0,0,0-5,2.5h0l.3-2h-6.7L42,42.6Zm30.9-17.2a3.74,3.74,0,0,1,3.7-3.1,2.42,2.42,0,0,1,2.7,2.5c0,.1-.1.5-.1.6Zm5,5.8c-.3.7-1.2,1.3-2.8,1.3-2.1,0-2.8-1.5-2.8-3.4h13a9.91,9.91,0,0,0,.4-3.3c0-5.8-4.9-8.1-9-8.1-4.5,0-11,2.8-11,11.1,0,4.5,2.6,8.1,9.2,8.1,8,0,9.3-4.6,9.8-5.9h-6.8Zm7.6,5.4h7.1l1.5-7.6c.9-3.8,2.3-5.1,5.3-5.1a6.36,6.36,0,0,1,2.8.5l1.3-6.3a8.63,8.63,0,0,0-2.5-.2,7.26,7.26,0,0,0-5.4,3.4h0l.6-2.9h-6.8l-3.9,18.2Zm21.6-5.2c0-1.4,1.1-2,2.3-2a10,10,0,0,0,3.7-.9c-.5,2.8-1.5,4.5-3.8,4.5-1.1-.1-2.2-.3-2.2-1.6Zm2-7.6a2.53,2.53,0,0,1,2.8-2c1.1,0,2.2.4,2.2,1.7,0,2.3-3.2,2-5.2,2-5.2.5-8.8,1.8-8.8,6.6,0,3.5,2.8,4.9,5.9,4.9,2,0,4.5-.7,5.6-2.3h.2a2.75,2.75,0,0,0,.2,1.8h6.8a2.79,2.79,0,0,1-.2-1.5c0-1.3,2.1-9.4,2.1-12.3,0-4.6-5.5-5-8.9-5-4.6,0-8.2,1.1-9.4,6h6.7Zm11.7,12.8h7l2.3-10.5c.3-1.5,1.1-2.8,2.9-2.8,1.1,0,1.7.6,1.7,1.8,0,.5-.2,1.2-.2,1.7l-2.1,9.8h7l2.4-11.1a2.51,2.51,0,0,1,2.6-2.2,1.63,1.63,0,0,1,1.8,1.8c0,.6-.3,2.4-.3,2.8l-2,8.7H151l2.2-10.4a29.31,29.31,0,0,0,.5-2.9c0-3.7-2.3-5.4-5.9-5.4a7.58,7.58,0,0,0-6.1,3c-.3-2.3-2.5-3-4.9-3a7.34,7.34,0,0,0-5.8,2.9h-.1l.5-2.4h-6.7l-3.9,18.2Zm39.8-5.2c0-1.4,1.1-2,2.3-2a10,10,0,0,0,3.7-.9c-.5,2.8-1.5,4.5-3.8,4.5-1.1-.1-2.2-.3-2.2-1.6Zm2-7.6a2.53,2.53,0,0,1,2.8-2c1.1,0,2.2.4,2.2,1.7,0,2.3-3.2,2-5.2,2-5.2.5-8.8,1.8-8.8,6.6,0,3.5,2.7,4.9,5.9,4.9,2,0,4.5-.7,5.6-2.3h.2a2.75,2.75,0,0,0,.2,1.8h6.8a2.79,2.79,0,0,1-.2-1.5c0-1.3,2.1-9.4,2.1-12.3,0-4.6-5.5-5-8.9-5-4.6,0-8.2,1.1-9.4,6h6.7Z"/><path class="cls-1" d="M192.82,8.1c1.7,0,2.2.6,2.2,1.5s-1.1,1.6-2.7,1.6-2-.7-2-1.3.6-1.8,2.5-1.8Z"/><path class="cls-1" d="M189.52,23.9l1.8.2s-1.3,11.4-21.1,18.2c-15.6,5.3-32.4-1.8-32.4-1.8l2.4-4.1c7.6,3,12.5,4.4,20.2,4.4s17.2-3.7,22-7.7a33.84,33.84,0,0,0,7.1-9.2Z"/><path class="cls-2" d="M189.22,10.9s-3,1.2-4.1,3.1c-1.4,1.8-1.8,5-5,5s-5-3.7-5-6.7c0-3.2,2.8-4.8,6.8-4.8s6.8,1.4,7.3,3.4Z"/><path class="cls-2" d="M189.42,8.4c-2.7-2.4-5.4-1.5-6.7-1.5-1.1,0-3-.6-3-1.6,0-2.5,4.3-5.3,10.6-5.3,3.3,0,5.1.7,5.1,2.8s-3.1,5.1-6,5.6Z"/><path class="cls-2" d="M195.62,8.4c0-5.3,2-7.9,6.3-7.9,4.1,0,7.3,3.3,7.3,5.6,0,1.2-.4,1.8-1.9,1.8s-4.1-1.1-5.9-1.1a11.1,11.1,0,0,0-5.8,1.6Z"/><path class="cls-2" d="M195.32,11.2c1.5-2,3.3-2.9,7.8-2.9s8.1,1.8,8.1,5.2-5.4,6.3-7.4,6.3-3-2.3-3.8-3.8-2.6-4.3-4.7-4.8Z"/><path class="cls-2" d="M192.52,12.1c4,0,7.9,4.3,7.9,7.7,0,2.8-5.1,3.4-7.3,3.4s-9.7-1.1-9.7-3.9c0-3.8,6.5-7.2,9.1-7.2Z"/></g></g></svg>