<svg xmlns="http://www.w3.org/2000/svg" viewBox="0 0 180 180"><defs><style>.cls-1{fill:#016fd0;}.cls-1,.cls-2{fill-rule:evenodd;}.cls-2{fill:#fff;}</style></defs><g id="Capa_2" data-name="Capa 2"><g id="Capa_1-2" data-name="Capa 1"><polygon class="cls-1" points="0 0 180 0 180 97.17 180 123.48 180 180 0 180 0 88.4 0 75.87 0 0 0 0"/><path class="cls-2" d="M34.94,125.43V97.17H64.86l3.21,4.18,3.32-4.18H180v26.31a12.56,12.56,0,0,1-6.13,2H113.74L110.12,121v4.46H98.26v-7.6a10,10,0,0,1-5.13,1.06h-4v6.54h-18l-3.21-4.28-3.25,4.28Z"/><path class="cls-2" d="M0,75.87,6.75,60.14H18.42L22.25,69V60.14h14.5L39,66.51l2.21-6.37h65.12v3.2a14,14,0,0,1,9-3.2l21.12.07,3.77,8.7V60.14h12.14l3.34,5v-5H168V88.4H155.78l-3.2-5v5H134.74L133,83.94h-4.8l-1.76,4.46h-12.1a11.93,11.93,0,0,1-7.93-3.14V88.4H88.12L84.5,83.94V88.4H16.69L14.9,83.94H10.12L8.34,88.4H0V75.87Z"/><path class="cls-1" d="M9.14,63.62,0,84.78H6l1.68-4.23H17.4l1.67,4.23h6.06L16,63.62Zm3.36,4.93,3,7.4h-6l3-7.4Z"/><polygon class="cls-1" points="25.75 84.78 25.75 63.62 34.17 63.65 39.07 77.29 43.85 63.62 52.2 63.62 52.2 84.78 46.91 84.78 46.91 69.19 41.31 84.78 36.67 84.78 31.04 69.19 31.04 84.78 25.75 84.78 25.75 84.78"/><polygon class="cls-1" points="55.82 84.78 55.82 63.62 73.09 63.62 73.09 68.35 61.17 68.35 61.17 71.97 72.81 71.97 72.81 76.43 61.17 76.43 61.17 80.19 73.09 80.19 73.09 84.78 55.82 84.78 55.82 84.78"/><path class="cls-1" d="M76.15,63.62V84.78h5.29V77.27h2.23L90,84.78h6.46l-7-7.79a6.45,6.45,0,0,0,5.81-6.5c0-4.45-3.5-6.87-7.4-6.87Zm5.29,4.74h6A2.42,2.42,0,0,1,90,70.58a2.39,2.39,0,0,1-2.43,2.23H81.44V68.36Z"/><polygon class="cls-1" points="102.88 84.78 97.48 84.78 97.48 63.62 102.88 63.62 102.88 84.78 102.88 84.78"/><path class="cls-1" d="M115.68,84.78h-1.16c-5.64,0-9.07-4.44-9.07-10.49,0-6.2,3.39-10.67,10.51-10.67h5.85v5h-6.06c-2.89,0-4.94,2.26-4.94,5.71,0,4.1,2.34,5.82,5.71,5.82h1.39l-2.23,4.62Z"/><path class="cls-1" d="M127.2,63.62l-9.11,21.16H124l1.68-4.23h9.76l1.67,4.23h6.06L134.1,63.62Zm3.36,4.93,3,7.4h-6l3-7.4Z"/><polygon class="cls-1" points="143.81 84.78 143.81 63.62 150.53 63.62 159.12 76.91 159.12 63.62 164.41 63.62 164.41 84.78 157.9 84.78 149.09 71.14 149.09 84.78 143.81 84.78 143.81 84.78"/><polygon class="cls-1" points="38.56 121.81 38.56 100.65 55.82 100.65 55.82 105.38 43.91 105.38 43.91 109 55.55 109 55.55 113.46 43.91 113.46 43.91 117.22 55.82 117.22 55.82 121.81 38.56 121.81 38.56 121.81"/><polygon class="cls-1" points="123.15 121.81 123.15 100.65 140.41 100.65 140.41 105.38 128.49 105.38 128.49 109 140.07 109 140.07 113.46 128.49 113.46 128.49 117.22 140.41 117.22 140.41 121.81 123.15 121.81 123.15 121.81"/><polygon class="cls-1" points="56.49 121.81 64.9 111.36 56.29 100.65 62.96 100.65 68.08 107.27 73.22 100.65 79.63 100.65 71.14 111.23 79.56 121.81 72.89 121.81 67.92 115.29 63.06 121.81 56.49 121.81 56.49 121.81"/><path class="cls-1" d="M80.19,100.65v21.16h5.43v-6.68h5.56c4.72,0,8.29-2.5,8.29-7.36,0-4-2.8-7.12-7.6-7.12Zm5.43,4.79h5.86a2.39,2.39,0,0,1,2.61,2.44,2.44,2.44,0,0,1-2.63,2.43H85.62v-4.87Z"/><path class="cls-1" d="M101.76,100.65v21.16h5.29v-7.52h2.23l6.34,7.52h6.47l-7-7.8a6.44,6.44,0,0,0,5.8-6.5c0-4.45-3.49-6.86-7.39-6.86Zm5.29,4.73h6a2.44,2.44,0,0,1,2.51,2.23,2.39,2.39,0,0,1-2.43,2.23h-6.13v-4.46Z"/><path class="cls-1" d="M142.86,121.81v-4.59h10.59c1.56,0,2.24-.85,2.24-1.78s-.68-1.79-2.24-1.79h-4.79c-4.16,0-6.47-2.53-6.47-6.34,0-3.39,2.12-6.66,8.3-6.66h10.3l-2.23,4.76h-8.91c-1.7,0-2.23.89-2.23,1.75a1.84,1.84,0,0,0,2,1.84h5c4.63,0,6.64,2.63,6.64,6.08,0,3.7-2.24,6.73-6.9,6.73Z"/><path class="cls-1" d="M162.27,121.81v-4.59h10.14c1.57,0,2.25-.85,2.25-1.78s-.68-1.79-2.25-1.79h-4.33c-4.16,0-6.48-2.53-6.48-6.34,0-3.39,2.12-6.66,8.3-6.66H180l-2.23,4.76h-8.7c-1.71,0-2.23.89-2.23,1.75a1.84,1.84,0,0,0,1.95,1.84h4.56c4.64,0,6.65,2.63,6.65,6.08,0,3.7-2.24,6.73-6.9,6.73Z"/></g></g></svg>